<svg width="25" height="24" viewBox="0 0 25 24" fill="none" xmlns="http://www.w3.org/2000/svg">
<path d="M17.9697 9.53033C17.6768 9.23744 17.6768 8.76256 17.9697 8.46967C18.2626 8.17678 18.7374 8.17678 19.0303 8.46967L22.0283 11.4676C22.035 11.4743 22.0416 11.4811 22.0481 11.4881C22.1733 11.6221 22.25 11.8021 22.25 12C22.25 12.1006 22.2302 12.1966 22.1943 12.2842C22.1577 12.3738 22.103 12.4577 22.0303 12.5303L19.0303 15.5303C18.7374 15.8232 18.2626 15.8232 17.9697 15.5303C17.6768 15.2374 17.6768 14.7626 17.9697 14.4697L19.6893 12.75H3.5C3.08579 12.75 2.75 12.4142 2.75 12C2.75 11.5858 3.08579 11.25 3.5 11.25H19.6893L17.9697 9.53033Z" fill="currentColor"/>
</svg>
