<svg width="65" height="65" viewBox="0 0 65 65" fill="none" xmlns="http://www.w3.org/2000/svg">
<path d="M23.5926 39.8449C24.3858 40.6382 24.3858 41.9243 23.5926 42.7176C22.7993 43.5108 21.5132 43.5108 20.7199 42.7176L12.6006 34.5982C12.5823 34.58 12.5644 34.5616 12.5468 34.5427C12.2076 34.1797 12 33.6922 12 33.1563C12 32.8838 12.0536 32.6239 12.1509 32.3864C12.2501 32.144 12.3981 31.9168 12.5949 31.7199L20.7199 23.5949C21.5132 22.8017 22.7993 22.8017 23.5926 23.5949C24.3858 24.3882 24.3858 25.6743 23.5926 26.4675L18.9351 31.125L62.7812 31.125C63.9031 31.125 64.8125 32.0344 64.8125 33.1562C64.8125 34.2781 63.9031 35.1875 62.7812 35.1875L18.9351 35.1875L23.5926 39.8449Z" fill="currentColor"/>
</svg>
