<svg width="24" height="25" viewBox="0 0 24 25" fill="none" xmlns="http://www.w3.org/2000/svg">
<path fill-rule="evenodd" clip-rule="evenodd" d="M3.91682 4.98286L3.05738 6.70173C2.36714 8.08222 2.07391 9.64636 2.5769 11.1055C3.18108 12.8583 4.38906 15.3701 6.75988 17.741C9.13069 20.1118 11.6426 21.3198 13.3953 21.9239C14.8545 22.4269 16.4186 22.1337 17.7991 21.4434L19.5754 20.5553C20.7797 19.9531 21.057 18.3571 20.1264 17.3841L18.167 15.3352C17.4803 14.6173 16.3675 14.5206 15.5673 15.1093C14.67 15.7696 13.4701 15.8821 12.5295 15.2851C11.9682 14.9288 11.371 14.5036 10.9472 14.0799C10.4556 13.5883 9.96194 12.863 9.57634 12.2314C9.0838 11.4247 9.09083 10.4243 9.51353 9.57891L9.77626 9.05345C10.1613 8.28347 10.0103 7.35352 9.40162 6.7448L7.11988 4.46307C6.1546 3.49779 4.52732 3.76186 3.91682 4.98286ZM5.25846 5.65368L4.39902 7.37255C3.82332 8.52397 3.66462 9.65823 3.99501 10.6167C4.54344 12.2077 5.64649 14.5063 7.82054 16.6803C9.99458 18.8543 12.2931 19.9574 13.8841 20.5058C14.8426 20.8362 15.9769 20.6775 17.1283 20.1018L18.9046 19.2136C19.2057 19.0631 19.275 18.6641 19.0424 18.4208L17.0829 16.372C16.9174 16.1989 16.6491 16.1756 16.4563 16.3175C15.1277 17.2951 13.2554 17.5226 11.7256 16.5515C11.1364 16.1775 10.4283 15.6822 9.88659 15.1406C9.26372 14.5177 8.69481 13.6661 8.2961 13.0131C7.50281 11.7138 7.54625 10.1594 8.17189 8.90809L8.43462 8.38263C8.53087 8.19013 8.49314 7.95764 8.34096 7.80546L6.05922 5.52373C5.81791 5.28241 5.41109 5.34843 5.25846 5.65368Z" fill="#000F9F"/>
<path d="M15.5354 8.62227C14.8819 7.96877 14.0879 7.61687 13.4848 7.70302C13.2115 7.74207 12.9582 7.55211 12.9192 7.27875C12.8801 7.00538 13.0701 6.75212 13.3434 6.71307C14.3903 6.56353 15.4818 7.15445 16.2425 7.91517C17.0033 8.67589 17.5942 9.76746 17.4446 10.8143C17.4056 11.0877 17.1523 11.2776 16.8789 11.2386C16.6056 11.1995 16.4156 10.9463 16.4547 10.6729C16.5408 10.0698 16.1889 9.27577 15.5354 8.62227Z" fill="#000F9F"/>
<path d="M12.8844 9.79686C13.8484 9.43121 14.7265 10.3093 14.3608 11.2734C14.2629 11.5316 14.3928 11.8203 14.651 11.9182C14.9092 12.0161 15.1979 11.8862 15.2958 11.628C15.9672 9.85793 14.2998 8.19046 12.5297 8.86186C12.2715 8.95979 12.1416 9.24849 12.2395 9.50669C12.3375 9.76488 12.6262 9.89479 12.8844 9.79686Z" fill="#000F9F"/>
</svg>
