<svg width="24" height="24" viewBox="0 0 24 24" fill="none" xmlns="http://www.w3.org/2000/svg">
<path d="M8.62404 3.08405C8.39427 2.73941 7.92862 2.64628 7.58397 2.87604C7.23933 3.10581 7.1462 3.57146 7.37596 3.9161C7.50764 4.11362 7.69588 4.46907 7.80435 4.84534C7.91919 5.24368 7.90305 5.51693 7.82918 5.66467C7.58039 6.16225 7.44001 6.74712 7.35967 7.24253C7.27815 7.74526 7.25 8.21042 7.25 8.50008C7.25 8.91429 7.58579 9.25008 8 9.25008C8.41421 9.25008 8.75 8.91429 8.75 8.50008C8.75 8.28974 8.77185 7.90489 8.84033 7.48263C8.90999 7.05304 9.01961 6.63791 9.17082 6.33549C9.49695 5.68323 9.39748 4.95648 9.24565 4.42982C9.08746 3.88108 8.82569 3.38654 8.62404 3.08405Z" fill="white"/>
<path fill-rule="evenodd" clip-rule="evenodd" d="M12 9.75008C7.16751 9.75008 3.25 13.6676 3.25 18.5001H2.75C2.33579 18.5001 2 18.8359 2 19.2501C2 19.6643 2.33579 20.0001 2.75 20.0001H21.25C21.6642 20.0001 22 19.6643 22 19.2501C22 18.8359 21.6642 18.5001 21.25 18.5001H20.75C20.75 13.6676 16.8325 9.75008 12 9.75008ZM12 11.2501C7.99594 11.2501 4.75 14.496 4.75 18.5001H19.25C19.25 14.496 16.0041 11.2501 12 11.2501Z" fill="white"/>
<path d="M11.584 2.87604C11.9286 2.64628 12.3943 2.73941 12.624 3.08405C12.8257 3.38654 13.0875 3.88108 13.2457 4.42982C13.3975 4.95648 13.497 5.68323 13.1708 6.33549C13.0196 6.63791 12.91 7.05304 12.8403 7.48263C12.7719 7.90489 12.75 8.28974 12.75 8.50008C12.75 8.91429 12.4142 9.25008 12 9.25008C11.5858 9.25008 11.25 8.91429 11.25 8.50008C11.25 8.21042 11.2781 7.74526 11.3597 7.24253C11.44 6.74712 11.5804 6.16225 11.8292 5.66467C11.9031 5.51693 11.9192 5.24368 11.8043 4.84534C11.6959 4.46907 11.5076 4.11362 11.376 3.9161C11.1462 3.57146 11.2393 3.10581 11.584 2.87604Z" fill="white"/>
<path d="M16.624 3.08405C16.3943 2.73941 15.9286 2.64628 15.584 2.87604C15.2393 3.10581 15.1462 3.57146 15.376 3.9161C15.5076 4.11362 15.6959 4.46907 15.8043 4.84534C15.9192 5.24368 15.9031 5.51693 15.8292 5.66467C15.5804 6.16225 15.44 6.74712 15.3597 7.24253C15.2781 7.74526 15.25 8.21042 15.25 8.50008C15.25 8.91429 15.5858 9.25008 16 9.25008C16.4142 9.25008 16.75 8.91429 16.75 8.50008C16.75 8.28974 16.7719 7.90489 16.8403 7.48263C16.91 7.05304 17.0196 6.63791 17.1708 6.33549C17.497 5.68323 17.3975 4.95648 17.2457 4.42982C17.0875 3.88108 16.8257 3.38654 16.624 3.08405Z" fill="white"/>
</svg>
