<svg width="33" height="33" viewBox="0 0 33 33" fill="none" xmlns="http://www.w3.org/2000/svg">
<path d="M18.9514 33C18.7629 33 18.59 32.9368 18.4329 32.8103C18.26 32.6681 18.1657 32.4468 18.1657 32.2098V21.1624C18.1657 20.7198 18.5114 20.3721 18.9514 20.3721H21.9371L22.3929 17.3851H18.9514C18.5114 17.3851 18.1657 17.0374 18.1657 16.5948V13.6236C18.1657 11.6164 19.4543 10.3678 21.5129 10.3678H22.7071V7.94971C22.0471 7.85489 20.9943 7.74425 19.9729 7.74425C16.7043 7.74425 14.8186 9.70402 14.8186 13.102V16.5948C14.8186 17.0374 14.4729 17.3851 14.0329 17.3851H10.8429V20.3721H14.0486C14.4886 20.3721 14.8343 20.7198 14.8343 21.1624V32.2098C14.8343 32.4468 14.74 32.6681 14.5671 32.8103C14.3943 32.9684 14.1586 33.0316 13.9386 32.9842C5.86143 31.7198 0 24.8132 0 16.5948C0 7.44397 7.40143 0 16.5 0C25.5986 0 33 7.44397 33 16.5948C33 24.8132 27.1386 31.7198 19.0771 32.9842C19.03 33 18.9986 33 18.9514 33ZM16.5 1.58046C8.26571 1.58046 1.57143 8.31322 1.57143 16.5948C1.57143 23.7227 6.42714 29.7443 13.2629 31.2615V21.9684H10.0571C9.61714 21.9684 9.27143 21.6207 9.27143 21.1782V16.5948C9.27143 16.1523 9.61714 15.8046 10.0571 15.8046H13.2629V13.1178C13.2629 8.83477 15.84 6.1796 19.9886 6.1796C21.7486 6.1796 23.5557 6.47989 23.6343 6.49569C24.0114 6.55891 24.2943 6.8908 24.2943 7.27011V11.158C24.2943 11.6006 23.9486 11.9483 23.5086 11.9483H21.5286C20.3186 11.9483 19.7529 12.4856 19.7529 13.6236V15.8046H23.32C23.5557 15.8046 23.76 15.8994 23.9171 16.0733C24.0586 16.2471 24.1371 16.4842 24.09 16.7055L23.3986 21.273C23.3357 21.6523 23.0057 21.9368 22.6286 21.9368H19.7529V31.2299C26.5729 29.7285 31.4443 23.7069 31.4443 16.5632C31.4286 8.31322 24.7343 1.58046 16.5 1.58046Z" fill="currentColor"/>
</svg>
