<svg width="15" height="15" viewBox="0 0 15 15" fill="none" xmlns="http://www.w3.org/2000/svg">
<path fill-rule="evenodd" clip-rule="evenodd" d="M2.28984 5.41936L5.93785 2.50095C6.85089 1.77052 8.14828 1.77052 9.06132 2.50095L12.7093 5.41936C13.3596 5.93954 13.7081 6.74932 13.639 7.57914L13.2201 12.6054C13.1661 13.2532 12.6245 13.7516 11.9744 13.7516H9.54637C8.69317 13.7516 8.09071 12.9157 8.36051 12.1063L8.51857 11.6321C8.78596 10.8299 8.18889 10.0016 7.34333 10.0016C6.49778 10.0016 5.90071 10.8299 6.1681 11.6321L6.32616 12.1063C6.59596 12.9157 5.9935 13.7516 5.1403 13.7516H3.02475C2.37464 13.7516 1.83306 13.2532 1.77907 12.6054L1.36022 7.57914C1.29106 6.74932 1.63962 5.93954 2.28984 5.41936ZM2.87549 6.15142L6.5235 3.23302C7.09415 2.77649 7.90502 2.77649 8.47567 3.23302L12.1237 6.15142C12.5301 6.47653 12.7479 6.98265 12.7047 7.50129L12.2858 12.5275C12.2723 12.6895 12.1369 12.8141 11.9744 12.8141H9.54637C9.33307 12.8141 9.18245 12.6051 9.2499 12.4027L9.40796 11.9286C9.8777 10.5194 8.82879 9.06406 7.34333 9.06406C5.85788 9.06406 4.80897 10.5194 5.27871 11.9286L5.43677 12.4027C5.50422 12.6051 5.3536 12.8141 5.1403 12.8141H3.02475C2.86222 12.8141 2.72683 12.6895 2.71333 12.5275L2.29448 7.50129C2.25126 6.98265 2.4691 6.47653 2.87549 6.15142Z" fill="#000F9F"/>
</svg>
