<svg width="24" height="24" viewBox="0 0 24 24" fill="none" xmlns="http://www.w3.org/2000/svg">
<path fill-rule="evenodd" clip-rule="evenodd" d="M14.3009 10.646C15.1153 9.63464 16.1848 8.22213 16.8621 7C17.2362 6.32497 17.6279 5.46036 17.9724 4.64059C18.5078 3.3665 17.5488 2 16.1668 2H7.83526C6.45325 2 5.49422 3.3665 6.0296 4.64059C6.37407 5.46036 6.76578 6.32497 7.1399 7C7.81722 8.22213 8.88672 9.63464 9.70109 10.646C10.3339 11.4318 10.3339 12.5682 9.70109 13.354C8.88672 14.3654 7.81722 15.7779 7.1399 17C6.76578 17.675 6.37407 18.5396 6.0296 19.3594C5.49422 20.6335 6.45325 22 7.83526 22H16.1668C17.5488 22 18.5078 20.6335 17.9724 19.3594C17.6279 18.5396 17.2362 17.675 16.8621 17C16.1848 15.7779 15.1153 14.3654 14.3009 13.354C13.6681 12.5682 13.6681 11.4318 14.3009 10.646ZM16.554 3.69436C16.6277 3.80121 16.6466 3.92367 16.5895 4.05951C16.2519 4.86314 15.8848 5.66904 15.5501 6.27288C14.9389 7.37571 13.9383 8.70465 13.1326 9.70517C12.0575 11.0403 12.0575 12.9597 13.1326 14.2948C13.9383 15.2954 14.9389 16.6243 15.5501 17.7271C15.8848 18.331 16.2519 19.1369 16.5895 19.9405C16.6466 20.0763 16.6277 20.1988 16.554 20.3056C16.4767 20.4176 16.3445 20.5 16.1668 20.5H7.83526C7.65748 20.5 7.52528 20.4176 7.44806 20.3056C7.37433 20.1988 7.35539 20.0763 7.41247 19.9405C7.75016 19.1369 8.11722 18.331 8.45188 17.7271C9.06308 16.6243 10.0637 15.2954 10.8694 14.2948C11.9445 12.9597 11.9445 11.0403 10.8694 9.70518C10.0637 8.70464 9.06308 7.37571 8.45188 6.27288C8.11722 5.66904 7.75016 4.86314 7.41247 4.05951C7.3554 3.92368 7.37433 3.80121 7.44806 3.69436C7.52528 3.58243 7.65748 3.5 7.83526 3.5H16.1668C16.3445 3.5 16.4767 3.58243 16.554 3.69436Z" fill="white"/>
</svg>
