<svg width="33" height="33" viewBox="0 0 33 33" fill="none" xmlns="http://www.w3.org/2000/svg">
<path d="M16.5165 33C11.88 33 11.319 32.9835 9.4545 32.901V32.9175C7.8705 32.8514 6.6495 32.6203 5.4945 32.1581C4.455 31.7619 3.4815 31.1346 2.6895 30.3422C1.881 29.5498 1.254 28.5923 0.858 27.5523C0.4125 26.3802 0.1815 25.1586 0.0989999 23.5903H0.1155H0.0989999C0.0164999 21.7744 0 21.1636 0 16.5248C0 11.919 0.0164999 11.3082 0.0989999 9.45923H0.1155H0.0989999C0.165 7.87444 0.396 6.66933 0.858 5.49725C1.254 4.44072 1.881 3.48324 2.673 2.69085C3.4815 1.88194 4.422 1.25463 5.478 0.858429C6.633 0.412706 7.854 0.181591 9.438 0.0990496V0.115558V0.0990496C11.253 0.0165084 11.8635 0 16.5 0C21.12 0 21.7305 0.0165084 23.562 0.0990496V0.115558V0.0825412C25.146 0.148574 26.367 0.37969 27.522 0.841921C28.578 1.23812 29.535 1.86543 30.327 2.65783C31.1355 3.45022 31.7625 4.4077 32.1585 5.46423C32.604 6.63632 32.8515 7.84142 32.9175 9.42621H32.901C32.9835 11.2916 33 11.8529 33 16.4917C33 21.1306 32.9835 21.6918 32.901 23.5573H32.9175C32.8515 25.1421 32.6205 26.3637 32.1585 27.5193C31.7625 28.5758 31.1355 29.5333 30.327 30.3257C29.535 31.1346 28.578 31.7619 27.522 32.1581C26.3505 32.6038 25.1295 32.8514 23.562 32.9175V32.901C21.714 32.9835 21.153 33 16.5165 33ZM2.409 26.9085C2.7225 27.7504 3.2175 28.5263 3.861 29.1536C4.488 29.7974 5.2635 30.3092 6.0885 30.6063C6.7485 30.8704 7.722 31.1676 9.5205 31.2501C11.352 31.3327 11.913 31.3492 16.5165 31.3492C21.12 31.3492 21.681 31.3327 23.5125 31.2501C25.2945 31.1676 26.268 30.8704 26.928 30.6063C27.7695 30.2926 28.545 29.7974 29.1555 29.1536C29.8155 28.5098 30.294 27.7669 30.6075 26.925C30.8715 26.2646 31.1685 25.2906 31.251 23.4912C31.3335 21.6588 31.35 21.0975 31.35 16.4917C31.35 11.8859 31.3335 11.3247 31.251 9.49225C31.1685 7.70935 30.8715 6.71886 30.6075 6.07504C30.261 5.18359 29.832 4.50675 29.1555 3.84642C28.479 3.16958 27.819 2.74037 26.928 2.3937C26.268 2.12956 25.2945 1.83242 23.496 1.74987L23.067 1.73337L9.5205 1.74987C7.7385 1.83242 6.7485 2.14607 6.105 2.3937C5.247 2.70735 4.488 3.2026 3.861 3.84642C3.1845 4.52326 2.7555 5.18359 2.409 6.07504C2.145 6.73537 1.848 7.70935 1.7655 9.50875L1.749 9.93797V23.5243H1.7655L2.409 26.9085ZM2.3595 26.8589H2.376H2.3595ZM16.5165 24.6468C14.3385 24.6468 12.2925 23.8049 10.758 22.2531C9.2235 20.7179 8.382 18.6708 8.382 16.4917C8.382 14.3127 9.2235 12.2656 10.758 10.7304C12.2925 9.1951 14.3385 8.35318 16.5165 8.35318C18.6945 8.35318 20.7405 9.1951 22.275 10.7304C23.8095 12.2656 24.651 14.3127 24.651 16.4917C24.651 18.6708 23.8095 20.7179 22.275 22.2531C20.7405 23.7884 18.678 24.6468 16.5165 24.6468ZM16.5165 10.037C15.6585 10.037 14.8335 10.2021 14.0415 10.5323C13.2495 10.8624 12.54 11.3247 11.946 11.9355C11.3355 12.5298 10.857 13.2396 10.5435 14.032C10.2135 14.8244 10.0485 15.6498 10.0485 16.5083C10.0485 17.3667 10.2135 18.1921 10.5435 18.9845C10.8735 19.7769 11.3355 20.4867 11.946 21.081C12.5565 21.6918 13.2495 22.1541 14.0415 22.4842C16.434 23.4747 19.2555 22.9135 21.087 21.081C22.2915 19.8759 22.9845 18.2086 22.9845 16.5083C22.9845 14.7749 22.308 13.1571 21.087 11.9355C19.866 10.7139 18.2325 10.037 16.5165 10.037ZM25.8555 10.4002C25.08 10.4002 24.3375 10.1031 23.793 9.54177C23.2485 8.997 22.935 8.25413 22.935 7.47824C22.935 6.70235 23.232 5.95948 23.793 5.41471C24.8985 4.30865 26.8125 4.30865 27.918 5.41471C28.4625 5.95948 28.776 6.70235 28.776 7.47824C28.776 8.25413 28.479 8.997 27.918 9.54177C27.357 10.0865 26.631 10.4002 25.8555 10.4002ZM25.8555 6.2071C25.509 6.2071 25.1955 6.33917 24.9645 6.58679C24.717 6.83442 24.585 7.14807 24.585 7.47824C24.585 7.8084 24.717 8.13857 24.9645 8.36968C25.443 8.84842 26.2845 8.84842 26.763 8.36968C26.994 8.13857 27.126 7.8084 27.126 7.47824C27.126 7.14807 26.994 6.81791 26.763 6.58679C26.499 6.33917 26.1855 6.2071 25.8555 6.2071Z" fill="currentColor"/>
</svg>
