<svg width="98" height="90" viewBox="0 0 98 90" fill="none" xmlns="http://www.w3.org/2000/svg">
<path d="M20.4488 38.8204L78.5172 39.2607V40.3545H78.1808L20.5329 39.9568H20.4488V38.8204ZM20.561 31.8744L16.7907 16.0363L16.5524 15.0136L15.5152 14.8289C14.9966 14.7295 14.506 14.488 14.2117 14.0193C14.1136 13.863 14.0435 13.6926 14.0155 13.5079C13.9734 13.3232 13.9734 13.1386 14.0155 12.9539C14.0996 12.4284 14.45 12.0164 14.8845 11.7323C15.4171 11.4056 16.0338 11.2778 16.6365 11.4482C16.9589 11.5335 17.2672 11.7039 17.5055 11.9312C17.7017 12.1159 17.8559 12.3431 17.926 12.5988V12.6414C18.0521 13.1102 17.8699 13.5789 17.6316 13.9767L17.071 14.8573L17.6456 15.738C19.2855 18.2806 22.2149 20.2693 24.8639 21.5903C26.6019 22.4568 28.9005 23.3517 31.101 23.8488C29.8816 24.8573 29.0967 26.3914 29.1107 28.1244C29.1248 30.0846 30.1479 31.7892 31.6757 32.7267L20.547 32.6414V31.8744H20.561ZM22.1027 21.6329L19.3276 19.4454L20.3367 24.2465L22.1027 21.6329ZM34.5069 31.1073C36.1468 31.1073 37.4643 29.7295 37.4503 28.0676C37.4503 26.4056 36.1047 25.0562 34.4649 25.0704C32.811 25.0846 31.4935 26.4482 31.5075 28.1102C31.5215 29.7721 32.853 31.1215 34.5069 31.1073ZM37.5204 23.5931C39.3705 22.9255 41.1505 21.8318 42.5941 20.7238C45.061 18.8346 47.5138 16.1926 48.8733 13.3517L49.2237 12.5988L48.8313 11.8744C48.3687 10.9937 48.0464 10.0136 48.0183 9.00506C48.0043 8.32324 48.1305 7.62722 48.4528 7.01642C48.6771 6.60449 48.9995 6.20676 49.4059 5.97949C49.5741 5.89426 49.7563 5.83745 49.9385 5.82324C50.1768 5.82324 50.4291 5.93688 50.6253 6.07892C50.9757 6.3204 51.2561 6.70392 51.4383 7.08745C51.7046 7.58461 51.8307 8.16699 51.8447 8.73517C51.8728 9.78631 51.4943 10.7948 50.9056 11.6613L50.331 12.4994L50.8215 13.3943C52.4194 16.221 54.4097 18.9767 56.9466 21.0079C58.4463 22.2011 60.0721 23.1102 61.8381 23.6357C60.2403 24.5874 59.1751 26.3488 59.1891 28.3659C59.2031 30.3119 60.2263 32.0022 61.74 32.9539L37.226 32.7693C38.8098 31.8176 39.875 30.0562 39.861 28.0534C39.847 26.1926 38.922 24.5732 37.5204 23.5931ZM53.7089 19.7295C54.2274 22.059 55.1665 24.346 56.5261 26.5761C56.5261 26.5761 57.8576 23.9198 58.0959 23.4937C56.6102 22.7693 55.1525 21.4482 53.7089 19.7295ZM40.8982 23.3659C41.1225 23.792 42.3278 26.5193 42.3278 26.5193C43.7855 24.346 44.8227 22.1159 45.4534 19.8147C43.9397 21.4624 42.426 22.7124 40.8982 23.3659ZM20.4629 37.8545L78.5172 38.2806V36.5761L20.4909 36.1499L20.4629 37.8545ZM64.5853 31.3488C66.2252 31.3346 67.5567 29.971 67.5427 28.309C67.5286 26.6471 66.1831 25.2977 64.5432 25.3119C62.9034 25.3261 61.5718 26.6897 61.5858 28.3517C61.5999 30.0136 62.9454 31.3488 64.5853 31.3488ZM67.9071 24.0619C69.9955 23.7778 72.0839 23.1386 73.92 22.3431C76.9194 21.0363 79.7927 19.0903 81.9511 16.6045L82.708 15.7238L82.1333 14.7153C81.8951 14.3034 81.7689 13.8062 81.8951 13.3232C81.9651 13.0249 82.1474 12.7551 82.3716 12.5278C82.6239 12.2863 82.9463 12.1159 83.2826 12.0448C83.9274 11.8886 84.5581 12.059 85.1047 12.3999C85.4691 12.613 85.7775 12.9539 85.9317 13.3659C85.9877 13.5221 86.0158 13.6926 86.0018 13.863C86.0018 14.0477 85.9317 14.2181 85.8336 14.3602C85.4832 14.9568 84.6702 15.3687 84.0535 15.596L83.2967 15.8801L78.5873 32.684L78.5172 32.8971V33.0818L67.3184 32.9965C68.9022 32.0448 69.9534 30.2835 69.9394 28.2948C69.9254 26.5761 69.1265 25.0562 67.9071 24.0619ZM77.424 22.3289L79.232 24.9284L80.1711 20.113L77.424 22.3289ZM20.5049 35.1698L78.5172 35.6102V34.0477L20.5329 33.6215L20.5049 35.1698ZM97.9574 75.8374C97.635 80.2977 94.8178 82.4141 89.5899 82.1016C85.9317 82.3999 82.2174 82.9681 78.2369 83.8204C74.8871 84.5448 71.6634 85.3971 67.809 86.4482C63.0435 87.7409 58.18 89.0619 53.1903 89.8005L52.7838 89.8431C51.8868 89.8999 50.9617 89.9568 50.0367 89.9852C49.5741 89.9852 49.1256 89.9994 48.6631 89.9994C48.2006 89.9994 47.7661 89.9994 47.3175 89.9852H47.1774C44.234 89.7721 41.4308 89.1471 39.3144 88.6215C36.6373 87.9539 33.9743 87.1585 31.4094 86.3914L30.9609 86.2636C23.7006 84.0903 16.202 81.8602 8.59129 81.4909H8.339C6.37676 81.3772 3.41938 81.221 1.54123 79.0619C-0.42101 76.7891 -0.0565941 73.8062 0.223726 71.7892L1.21886 45.7522V45.5392C1.12075 43.5221 0.994607 40.4539 2.76063 38.3801C4.7509 36.0505 7.65222 36.221 9.57241 36.3204L9.86675 36.3488C11.0161 36.4056 12.2495 36.363 13.4969 36.2352C13.9034 36.1926 14.3098 36.1357 14.7303 36.0789L14.7864 32.5278L11.6888 19.488C10.7357 18.8914 9.93683 18.0818 9.33414 17.1159C8.85759 16.3488 8.52121 15.4965 8.35302 14.6017C8.18482 13.7068 8.18482 12.7977 8.339 11.917C8.71743 9.80052 9.95084 7.98233 11.829 6.78915C13.7071 5.58177 16.0058 5.22665 18.1362 5.80904C19.3836 6.14995 20.5329 6.80336 21.458 7.68404C22.4671 8.64995 23.182 9.85733 23.5184 11.1926C23.7426 12.0874 23.7847 12.9965 23.6725 13.8914C24.6256 14.7437 25.9151 15.596 27.4148 16.3488C29.4611 17.3857 32.4886 18.4085 34.2546 18.3801C35.46 18.3374 37.3241 17.4426 39.1322 16.0647C40.5758 14.9568 41.8653 13.6215 42.7904 12.3147C42.468 11.2636 42.2858 10.1982 42.2578 9.14711C42.2157 7.39995 42.6082 5.70961 43.379 4.24654C44.1639 2.76926 45.3133 1.57608 46.7008 0.837447C47.6679 0.311879 48.7332 0.0135831 49.7984 -0.000621449C51.214 -0.0290305 52.6717 0.397106 53.9051 1.27779C55.0123 2.05904 55.9374 3.15279 56.5821 4.4454C57.2129 5.70961 57.5633 7.14427 57.6053 8.59313C57.6333 9.85733 57.4231 11.1499 56.9746 12.3857C58.0678 14.0335 59.2171 15.3545 60.3945 16.3204L60.5206 16.434C61.9503 17.5704 63.422 18.1954 65.0058 18.3517C66.7998 18.5079 69.2806 17.9965 71.6494 16.9738C73.3173 16.2494 74.831 15.3119 76.1064 14.2465C76.0364 13.4511 76.1064 12.6414 76.3027 11.8744C76.6531 10.4965 77.3959 9.24654 78.4331 8.26642C79.4282 7.32892 80.6617 6.66131 81.9932 6.34881C84.0675 5.88006 86.24 6.24938 88.1182 7.41415C89.6039 8.33745 90.7392 9.72949 91.3278 11.3346C91.6923 12.3005 91.8324 13.309 91.7483 14.3176C91.6642 15.4113 91.3278 16.4482 90.7532 17.4142C90.1225 18.4511 89.2395 19.346 88.1042 20.0562L84.2778 33.7068V36.7323C84.6142 36.7892 84.9365 36.846 85.2589 36.8886C86.8427 37.1443 88.1883 37.2153 89.3656 37.1301C91.2998 36.988 93.7666 37.0732 95.6448 38.8772C97.593 40.738 97.6911 43.2664 97.579 45.0562L97.8873 71.6613C97.9013 72.1159 97.9154 72.5846 97.9434 73.0534V73.3943C97.9854 74.1329 98.0275 74.9852 97.9574 75.8374ZM95.3925 73.2948C95.3644 72.7551 95.3504 72.2295 95.3364 71.6897L95.0141 44.9852C95.1262 43.4795 95.014 41.8602 93.8928 40.7664C92.7435 39.6585 91.0335 39.6159 89.5478 39.7153C88.006 39.8289 86.4082 39.7153 84.8805 39.4596C83.8153 39.2892 82.7641 39.0761 81.7269 38.8204V33.3517L85.9457 18.309C86.9969 17.7977 87.964 17.0732 88.5667 16.0647C88.9311 15.4681 89.1413 14.8147 89.1974 14.1187C89.2535 13.4795 89.1554 12.8261 88.9311 12.2295C88.5387 11.1499 87.7538 10.2267 86.7867 9.63006C85.5112 8.83461 84.0255 8.53631 82.5678 8.87722C81.6848 9.09029 80.8439 9.53063 80.1851 10.1556C79.4983 10.7948 79.0218 11.6045 78.7835 12.5136C78.5592 13.4227 78.6013 14.3318 78.8676 15.1982C77.1156 16.9738 74.9151 18.3801 72.6585 19.3602C70.3178 20.3829 67.3324 21.1642 64.7675 20.9369C62.581 20.7238 60.6608 19.8431 58.9368 18.4653L58.7826 18.3374C56.8905 16.7892 55.3487 14.7153 54.0873 12.613C54.732 11.3914 55.0824 10.042 55.0404 8.64995C55.0264 7.59881 54.7741 6.56188 54.3115 5.62438C53.877 4.7437 53.2463 3.96245 52.4474 3.40847C51.6905 2.8687 50.7935 2.5562 49.8544 2.58461C49.1677 2.59881 48.5089 2.79767 47.8922 3.12438C46.9251 3.64995 46.1542 4.50222 45.6356 5.48233C45.047 6.57608 44.7806 7.84029 44.8087 9.09029C44.8507 10.3119 45.1451 11.5051 45.6356 12.613C44.4443 14.7295 42.5521 16.6897 40.674 18.1386C38.992 19.417 36.5112 20.8801 34.3527 20.9653C31.928 21.0647 28.438 19.7579 26.2795 18.6784C24.4154 17.7409 22.2429 16.363 20.8553 14.6727C21.1917 13.7778 21.2758 12.7977 21.0375 11.846C20.8133 10.9653 20.3507 10.184 19.706 9.57324C19.0753 8.96245 18.3044 8.53631 17.4634 8.30904C16.0058 7.91131 14.464 8.16699 13.1745 8.99086C11.9691 9.7579 11.1142 10.9369 10.8619 12.3715C10.7498 12.9539 10.7638 13.5363 10.8619 14.1187C10.974 14.6869 11.1843 15.2409 11.4926 15.7522C12.0673 16.6613 12.9082 17.3289 13.8893 17.7267L17.3513 32.2437L17.2532 38.238C16.1039 38.4937 14.9405 38.6926 13.7632 38.8204C12.4317 38.9624 11.0721 39.0051 9.72659 38.934C8.03065 38.8346 5.92825 38.6215 4.69484 40.0846C3.51749 41.4624 3.6997 44.0335 3.76978 45.7522L2.77464 72.0164C2.53637 73.7494 2.22802 75.9369 3.46143 77.3431C4.6668 78.7494 6.96543 78.8204 8.67539 78.9056H8.70342C16.5384 79.2749 24.2051 81.5477 31.6897 83.7778C34.4228 84.5874 37.1559 85.4113 39.9171 86.1073C42.3278 86.7039 44.8227 87.2153 47.3035 87.3857H47.3876C48.2426 87.4142 49.1116 87.4142 49.9666 87.3857C50.8636 87.3715 51.7466 87.3147 52.6296 87.2579H52.7417L52.7558 87.2437C57.6333 86.5193 62.3988 85.2409 67.1502 83.9482C70.6542 82.9965 74.1582 82.059 77.7043 81.292C81.6288 80.4397 85.5673 79.8289 89.5618 79.5022C92.7154 79.7153 95.1402 79.3034 95.4065 75.6528C95.4626 74.8715 95.4205 74.0619 95.3925 73.2948ZM94.2992 71.7181L93.9769 44.9568C94.089 43.309 93.8928 42.2295 93.1639 41.5335C92.4491 40.8517 91.3419 40.6528 89.6179 40.7806C88.0481 40.8943 86.3522 40.7522 84.7123 40.5107C83.6751 40.3403 82.6659 40.1414 81.7269 39.9142V40.8374C81.7129 41.0363 81.7129 41.2494 81.6988 41.4482C82.5818 41.6613 83.5209 41.846 84.474 41.988C86.212 42.2579 88.0201 42.3999 89.716 42.2863C90.9915 42.1869 91.7623 42.2721 92.1268 42.6272C92.4772 42.9539 92.5612 43.6784 92.4772 44.8431V44.9142L92.7995 71.7323C92.7995 72.3573 92.8276 72.8971 92.8416 73.3943C92.8836 74.2039 92.9117 74.8999 92.8696 75.4681C92.7855 76.6755 92.1688 77.1159 89.6039 76.9312H89.4917C80.6336 77.6272 73.3453 79.6016 66.4774 81.4624C61.698 82.7693 57.1288 84.0051 52.4194 84.7011C51.5364 84.7579 50.6954 84.8005 49.8825 84.8289C49.476 84.8289 49.0695 84.8431 48.6631 84.8431C48.2566 84.8431 47.8502 84.8289 47.4577 84.8289C43.2109 84.5448 38.053 82.9965 32.3905 81.3062C28.7603 80.2267 24.9199 79.0903 20.9534 78.167C16.9869 77.2437 12.9082 76.5335 8.78751 76.3488C6.81125 76.2352 5.74604 76.1073 5.33957 75.6528C4.96114 75.2124 5.0172 74.1897 5.28351 72.2863V72.2153L6.29266 45.7806V45.7238C6.19455 43.3943 6.20857 42.2011 6.587 41.7607C6.92338 41.3772 7.84844 41.4056 9.58643 41.4909C11.0441 41.5761 12.5158 41.5335 14.0155 41.363C15.0807 41.2494 16.1599 41.0789 17.2392 40.8517C17.2111 40.4823 17.2252 40.1272 17.2252 39.7863V39.3176C16.0899 39.559 14.9686 39.7437 13.8613 39.8715C12.4457 40.0136 11.0441 40.0704 9.65651 39.9852C7.44198 39.8715 6.2366 39.8573 5.46572 40.7664C4.7509 41.6045 4.69484 43.0392 4.80696 45.7522L3.79781 72.1159C3.48946 74.4596 3.46143 75.7664 4.23231 76.6471C4.98917 77.5278 6.30668 77.7267 8.70342 77.8545C16.7486 78.2238 24.7518 80.6102 31.956 82.7693C37.6885 84.4738 42.9305 86.0363 47.3456 86.3346H47.3736C48.2006 86.363 49.0555 86.3488 49.9105 86.3346C50.7935 86.3062 51.6625 86.2636 52.5175 86.1926H52.5736C57.3951 85.4823 62.0204 84.2323 66.8559 82.9255C73.6256 81.0931 80.8298 79.1329 89.5338 78.4369C93.2621 78.7068 94.1731 77.8545 94.3413 75.5676C94.3833 74.9568 94.3553 74.2181 94.3132 73.3374C94.2992 72.8261 94.2712 72.2863 94.2712 71.7181H94.2992ZM18.3885 32.1301L14.7724 16.9028C13.6791 16.6045 12.8802 15.9795 12.3896 15.184C12.1373 14.7863 11.9691 14.3602 11.8851 13.9198C11.815 13.4653 11.801 13.0107 11.8851 12.5562C12.0673 11.5335 12.6699 10.5534 13.7352 9.88574C14.8705 9.16131 16.1179 9.03347 17.1971 9.33177C17.8839 9.51642 18.5006 9.87154 18.9912 10.3403C19.4817 10.8232 19.8602 11.4198 20.0284 12.1017C20.0984 12.3715 20.1405 12.6698 20.1405 12.9539C20.1405 13.5505 19.9863 14.1897 19.6499 14.8289C20.9814 16.6897 23.3081 18.3659 25.817 19.6301C28.9285 21.1926 32.2924 22.1159 34.3948 22.0306C36.4692 21.9454 39.006 20.738 41.2907 18.9767C43.6033 17.2153 45.6637 14.9142 46.799 12.6556C46.1682 11.3772 45.8879 10.1556 45.8599 9.06188C45.8319 7.8829 46.0982 6.83176 46.5467 5.97949C47.0092 5.11301 47.6679 4.4454 48.3968 4.06188C48.8593 3.79199 49.3779 3.64995 49.8825 3.63574C50.5833 3.62154 51.256 3.84881 51.8587 4.27495C52.4614 4.70108 52.994 5.34029 53.3725 6.09313C53.7509 6.84597 53.9752 7.72665 54.0032 8.67836C54.0312 9.91415 53.7089 11.2778 52.8819 12.613C54.5358 15.5249 56.3439 17.7409 58.2921 19.3034C60.2683 20.8801 62.3988 21.7749 64.6694 21.988C67.0661 22.2153 70.1216 21.6187 73.065 20.3261C75.6579 19.2039 78.1668 17.542 80.073 15.4397C79.6525 14.5164 79.5824 13.6073 79.7927 12.7835C79.9749 12.0732 80.3673 11.434 80.8999 10.9369C81.4185 10.4397 82.0773 10.0846 82.8061 9.91415C83.8713 9.65847 85.0767 9.81472 86.24 10.5249C87.0249 11.0221 87.6416 11.7607 87.95 12.5988C88.1182 13.0534 88.2023 13.5363 88.1602 14.0335C88.1182 14.5306 87.964 15.0278 87.6837 15.5107C87.2071 16.292 86.3802 17.0022 85.0767 17.542L80.6757 33.2096V40.8232C80.6757 41.0079 80.6757 41.1642 80.6617 41.3062C80.6196 42.3857 80.3533 42.4994 78.1948 42.542H78.1808L20.5189 42.1443C19.4117 42.1301 18.851 42.0448 18.5707 41.7181C18.3464 41.4482 18.3044 41.0363 18.3044 40.3829C18.2904 40.1982 18.2904 39.9994 18.2904 39.7721V39.3034L18.3885 32.1301ZM19.4958 31.9312V31.988V32.059L19.3836 39.3034H19.3976C19.3976 39.3034 19.3836 39.5164 19.3836 39.7721C19.3836 40.8374 19.3836 41.0079 20.5189 41.0221L78.1668 41.4056C79.5404 41.4056 79.5404 41.3346 79.5544 40.7948V32.9681L84.0535 16.9596L84.1376 16.6897L84.4039 16.5903C85.5953 16.1357 86.3381 15.5392 86.7166 14.9142C86.8988 14.6017 87.0109 14.2749 87.0249 13.9482C87.053 13.6215 87.0109 13.2948 86.8988 12.9965C86.6745 12.3857 86.226 11.8602 85.6373 11.4909C84.7543 10.9369 83.8293 10.8232 83.0444 11.0079C82.4977 11.1357 82.0212 11.4056 81.6428 11.7607C81.2643 12.1159 80.998 12.5562 80.8579 13.0676C80.6897 13.721 80.7878 14.4738 81.2223 15.2551L81.4185 15.596L81.1522 15.9085C79.1059 18.2664 76.3447 20.1272 73.4995 21.363C71.0186 22.4426 68.4677 23.0676 66.2252 23.1528C65.6505 23.167 65.0899 23.167 64.5573 23.1102C64.2209 23.0818 63.8845 23.0392 63.5481 22.9823C61.4317 22.5988 59.4414 21.6613 57.5913 20.184C55.4609 18.4795 53.4986 16.0505 51.7186 12.8687L51.5504 12.5562L51.7466 12.2721C52.5736 11.0505 52.8959 9.81472 52.8679 8.70677C52.8679 7.92551 52.6717 7.21529 52.3633 6.60449C52.069 6.0079 51.6625 5.52495 51.2 5.21245C50.7935 4.91415 50.345 4.7579 49.8965 4.77211C49.5601 4.78631 49.2237 4.87154 48.9014 5.0562C48.3687 5.34029 47.8782 5.85165 47.5138 6.51926C47.1494 7.20108 46.9391 8.05336 46.9531 9.03347C46.9812 10.042 47.2615 11.1642 47.9062 12.3715L48.0324 12.6272L47.9062 12.8829C46.7149 15.3971 44.4723 17.9539 41.9494 19.8857C40.0713 21.3204 38.0109 22.4284 36.1047 22.8971C35.5161 23.0392 34.9554 23.1386 34.4228 23.1528C33.8482 23.1812 33.2034 23.1386 32.5026 23.0249C30.3862 22.7267 27.7652 21.8744 25.3124 20.6386C22.5092 19.2323 19.9162 17.3289 18.5006 15.1556L18.3044 14.8573L18.5006 14.5448C18.9912 13.7636 19.0893 13.0249 18.9351 12.3857C18.809 11.917 18.5567 11.4909 18.2063 11.1642C17.8559 10.8232 17.3933 10.5676 16.8888 10.4255C16.0899 10.2124 15.1648 10.2977 14.3098 10.8374C13.5389 11.3346 13.1044 12.0306 12.9643 12.7551C12.9082 13.0818 12.9222 13.3943 12.9783 13.7068C13.0344 14.0193 13.1465 14.3176 13.3147 14.5874C13.6931 15.1982 14.3799 15.6954 15.319 15.8659L15.6834 15.9369L15.7675 16.292L19.4817 31.9312H19.4958ZM14.506 47.8687C14.6462 47.8687 14.7724 47.8971 14.9125 47.9255C15.0387 47.9539 15.1788 48.0249 15.305 48.1244C15.4031 48.2096 15.4732 48.309 15.5292 48.4511C15.5853 48.5931 15.5993 48.7636 15.5993 48.9624V52.3715C15.5993 52.7693 15.5853 53.0676 15.5432 53.2806C15.4872 53.4937 15.4031 53.6499 15.2769 53.7352C15.1648 53.8204 15.0246 53.8772 14.8424 53.9198C14.6602 53.9482 14.5341 53.9767 14.45 53.9767V54.3602H17.3653V53.9767C17.2812 53.9767 17.1411 53.934 16.9308 53.8772C16.7206 53.8204 16.5804 53.7494 16.4963 53.6784C16.3842 53.5789 16.3001 53.4369 16.244 53.2238C16.188 53.0107 16.174 52.7124 16.174 52.3147V48.1386L17.8839 52.8545C17.954 53.0392 18.0381 53.2948 18.1502 53.6215C18.2764 53.934 18.3464 54.1471 18.3745 54.2465H18.9772L21.3038 48.2096V53.3374C21.3038 53.4795 21.2758 53.5789 21.2197 53.6642C21.1777 53.7494 21.0936 53.8062 20.9674 53.863C20.9114 53.8914 20.7992 53.9056 20.6451 53.934C20.4909 53.9624 20.3647 53.9767 20.2526 53.9767V54.3602H23.9248V53.9767C23.8407 53.9767 23.7286 53.9482 23.5884 53.934C23.4343 53.9056 23.3361 53.8772 23.2661 53.8488C23.1399 53.792 23.0698 53.721 23.0278 53.6357C22.9857 53.5647 22.9717 53.4653 22.9717 53.3517V48.4795C22.9717 48.3801 22.9857 48.2806 23.0278 48.1812C23.0698 48.096 23.1399 48.0249 23.2661 47.9965C23.3782 47.9539 23.4763 47.9255 23.5884 47.9113C23.7006 47.8971 23.8127 47.8829 23.9108 47.8687V47.4994H20.9114C20.9114 47.4994 20.8833 47.6698 20.8413 47.8687C20.7852 48.0534 20.7432 48.2096 20.7011 48.3517L19.2855 52.0306L17.6176 47.4994H14.506V47.8687ZM29.2369 53.7068C29.2369 53.7068 29.2369 53.6499 29.2369 53.6215C29.2369 53.5789 29.2229 53.5363 29.1948 53.4795L28.6202 52.059H26.2795C26.2234 52.1869 26.1674 52.3431 26.1113 52.5278C26.0412 52.6982 25.9852 52.8687 25.9291 52.9965C25.873 53.1812 25.845 53.309 25.831 53.3943C25.831 53.4795 25.831 53.5363 25.831 53.5647C25.831 53.6642 25.9011 53.7494 26.0552 53.8204C26.2094 53.8914 26.4617 53.9482 26.8261 53.9767V54.3602H24.051V53.9767C24.1491 53.9767 24.2752 53.9624 24.4014 53.934C24.5415 53.9056 24.6396 53.863 24.7237 53.8204C24.8499 53.7352 24.962 53.6499 25.0461 53.5363C25.1442 53.4227 25.2143 53.2806 25.2704 53.1244C25.6488 52.2295 26.0132 51.3204 26.3916 50.4113C26.756 49.5022 27.1625 48.4937 27.611 47.3999H28.5641C29.1948 48.9482 29.6854 50.184 30.0358 51.0789C30.3862 51.988 30.6945 52.7409 30.9328 53.3232C30.9749 53.4227 31.0309 53.5079 31.101 53.5931C31.1571 53.6784 31.2552 53.7494 31.3673 53.8204C31.4514 53.863 31.5635 53.9056 31.6757 53.934C31.8018 53.9624 31.8999 53.9767 31.998 53.9767V54.3602H28.3118V53.9767C28.48 53.9767 28.6762 53.934 28.9145 53.8914C29.1528 53.8346 29.2649 53.7778 29.2649 53.7068H29.2369ZM28.4099 51.5761L27.4288 49.0903L26.4617 51.5761H28.4099ZM29.1948 65.6102H25.6768V65.2409C25.7749 65.2267 25.9011 65.2124 26.0552 65.1982C26.1954 65.1698 26.3075 65.1556 26.3636 65.1272C26.4897 65.0846 26.5598 65.0136 26.6019 64.9426C26.6439 64.8573 26.672 64.7579 26.672 64.6301V59.7863C26.672 59.6727 26.6579 59.5732 26.6159 59.5022C26.5879 59.417 26.5038 59.3602 26.3636 59.3034C26.2655 59.2607 26.1534 59.2181 26.0272 59.1897C25.8871 59.1613 25.7749 59.1471 25.6768 59.1329V58.7494H29.363C30.2881 58.7494 30.9468 58.8772 31.3673 59.1329C31.7738 59.4028 31.984 59.7721 31.984 60.2835C31.984 60.5107 31.928 60.7238 31.8439 60.8943C31.7458 61.0647 31.6196 61.221 31.4514 61.3488C31.2972 61.4624 31.101 61.5761 30.8908 61.6613C30.6665 61.7465 30.4423 61.8176 30.19 61.8744V61.9738C30.4423 61.988 30.6945 62.0448 30.9609 62.1301C31.2272 62.2153 31.4654 62.3289 31.6617 62.471C31.8579 62.613 32.0261 62.7835 32.1522 62.9965C32.2784 63.2096 32.3484 63.4653 32.3484 63.7636C32.3484 64.1045 32.2784 64.4028 32.1382 64.6443C31.984 64.8857 31.7738 65.0704 31.5075 65.2124C31.2272 65.3545 30.8908 65.4681 30.5123 65.5249C30.1479 65.5818 29.6994 65.6102 29.1948 65.6102ZM28.3679 61.7607H28.6202C29.1248 61.7607 29.5172 61.6329 29.7555 61.3914C29.9937 61.1499 30.1199 60.8232 30.1199 60.3971C30.1199 60.0136 30.0218 59.7295 29.8115 59.5164C29.6013 59.3034 29.2789 59.1897 28.8585 59.1897C28.7884 59.1897 28.7183 59.1897 28.6202 59.2039C28.5221 59.2039 28.438 59.2039 28.3679 59.2181V61.7607ZM29.1808 65.1698C29.5593 65.1698 29.8676 65.042 30.1059 64.7863C30.3441 64.5306 30.4563 64.1613 30.4563 63.6926C30.4563 63.2238 30.3161 62.8545 30.0358 62.5988C29.7555 62.3431 29.349 62.2153 28.8304 62.2153C28.7744 62.2153 28.6903 62.2153 28.5921 62.2295H28.3679V64.7437C28.3959 64.8715 28.48 64.971 28.6342 65.042C28.7884 65.1272 28.9706 65.1698 29.1808 65.1698ZM29.2509 73.8062C29.4191 73.863 29.5593 73.934 29.6854 74.0477C29.8115 74.1471 29.9237 74.2749 30.0078 74.417C30.0919 74.559 30.19 74.7437 30.2741 74.9568C30.4002 75.2409 30.5123 75.5391 30.6245 75.8801C30.7366 76.2068 30.8487 76.5477 30.9609 76.8744H33.5538V76.4909C33.5538 76.4909 33.3996 76.4767 33.2875 76.4624C33.1894 76.4482 33.0913 76.434 33.0212 76.4198C32.9651 76.4056 32.881 76.363 32.797 76.3062C32.6988 76.2352 32.6007 76.0931 32.5026 75.8801C32.4325 75.7522 32.3625 75.5818 32.2784 75.3971C32.1943 75.1982 32.1102 75.0278 32.0401 74.8431C31.8579 74.4596 31.6196 74.1187 31.3253 73.8488C31.0309 73.5789 30.6665 73.3801 30.218 73.2664V73.167C30.3722 73.0676 30.4983 72.9255 30.6245 72.7551C30.7366 72.5988 30.8627 72.3431 30.9889 72.0306C31.045 71.8744 31.115 71.6897 31.1851 71.4909C31.2552 71.2778 31.3393 71.1215 31.4374 71.0221C31.6336 71.2778 31.8018 71.4624 31.956 71.5477C32.0961 71.6329 32.2503 71.6755 32.3905 71.6755C32.6428 71.6755 32.839 71.6045 32.9932 71.4482C33.1474 71.292 33.2314 71.0647 33.2314 70.7948C33.2314 70.5392 33.1333 70.3261 32.9511 70.1698C32.7689 69.9994 32.5166 69.9142 32.1943 69.9142C31.998 69.9142 31.8298 69.9426 31.6617 70.0136C31.4935 70.0846 31.3673 70.1698 31.2552 70.2835C31.0309 70.5107 30.8768 70.7096 30.7927 70.8943C30.7226 71.0931 30.6385 71.3204 30.5404 71.5903C30.4563 71.8318 30.3582 72.0732 30.246 72.3147C30.1339 72.542 29.9517 72.7693 29.7274 72.9965C29.6153 73.1102 29.4892 73.1954 29.349 73.2238C29.2089 73.2664 29.0827 73.2806 28.9566 73.2806H28.6482V70.9937C28.6482 70.8943 28.6622 70.7948 28.7043 70.7096C28.7463 70.6102 28.8304 70.5534 28.9566 70.5107C29.0266 70.4823 29.1248 70.4539 29.2649 70.4397C29.4051 70.4113 29.5172 70.3971 29.6153 70.3829V70.0136H25.9571V70.3829C25.9571 70.3829 26.1393 70.4113 26.2795 70.4397C26.4337 70.4823 26.5458 70.5107 26.6439 70.5534C26.7701 70.6244 26.8542 70.6812 26.8962 70.7664C26.9242 70.8374 26.9523 70.9369 26.9523 71.0505V75.9085C26.9523 76.0221 26.9242 76.1215 26.8822 76.2068C26.8401 76.292 26.7561 76.3488 26.6439 76.4056C26.5738 76.4198 26.4617 76.4482 26.3075 76.4624C26.1534 76.4624 26.0412 76.4909 25.9571 76.4909V76.8744H29.6153V76.4909C29.5312 76.4909 29.4051 76.4766 29.2649 76.4482C29.1107 76.4198 29.0126 76.3914 28.9566 76.363C28.8444 76.3062 28.7603 76.2494 28.7183 76.1499C28.6622 76.0647 28.6482 75.9653 28.6482 75.8659V73.7352C28.8725 73.7352 29.0827 73.7636 29.2509 73.8062ZM40.5058 59.4454C40.5478 59.3602 40.6179 59.2892 40.744 59.2465C40.8421 59.2181 40.9543 59.1897 41.0944 59.1755C41.2206 59.1471 41.3327 59.1329 41.4308 59.1329V58.7494H37.8147V59.1329C37.8988 59.1471 38.0109 59.1613 38.1371 59.1897C38.2772 59.2181 38.3893 59.2607 38.4734 59.3034C38.5856 59.3602 38.6697 59.417 38.7117 59.488C38.7678 59.559 38.7818 59.6727 38.7818 59.8431L35.7403 63.6642V59.7437C35.7403 59.6443 35.7683 59.5448 35.7964 59.4454C35.8384 59.3602 35.9225 59.2892 36.0487 59.2465C36.1187 59.2465 36.2309 59.2039 36.357 59.1755C36.4972 59.1471 36.6233 59.1329 36.7214 59.1329V58.7494H33.0773V59.1329C33.0773 59.1329 33.2595 59.1613 33.4137 59.1897C33.5538 59.2181 33.68 59.2607 33.7641 59.3034C33.8902 59.3602 33.9743 59.4312 34.0163 59.5022C34.0584 59.5874 34.0724 59.6727 34.0724 59.7863V64.6443C34.0724 64.7579 34.0584 64.8715 34.0163 64.9568C33.9603 65.042 33.8902 65.0988 33.7641 65.1414C33.694 65.1698 33.5819 65.184 33.4277 65.2124C33.2735 65.2267 33.1614 65.2409 33.0773 65.2409V65.6102H36.7074V65.2409C36.6093 65.2267 36.4972 65.2124 36.343 65.184C36.2028 65.1556 36.1047 65.1272 36.0347 65.0988C35.9085 65.042 35.8384 64.9852 35.7964 64.9142C35.7543 64.8431 35.7263 64.7011 35.7263 64.4738L38.7678 60.6386V64.6585C38.7678 64.7721 38.7538 64.8715 38.7117 64.9568C38.6557 65.042 38.5856 65.0988 38.4594 65.1414C38.4034 65.1698 38.3052 65.1982 38.1511 65.2124C37.9969 65.2267 37.8848 65.2267 37.8007 65.2409V65.6102H41.4308V65.2409C41.3467 65.2267 41.2206 65.2124 41.0804 65.184C40.9262 65.1698 40.8141 65.1414 40.744 65.0988C40.6179 65.042 40.5478 64.9852 40.5058 64.8999C40.4637 64.8147 40.4357 64.7153 40.4357 64.6016V59.7437C40.4357 59.6301 40.4637 59.5448 40.5058 59.4454ZM42.0335 54.3602H37.0298C36.9177 54.0335 36.8055 53.6926 36.6934 53.3659C36.5813 53.0249 36.4692 52.7267 36.343 52.4426C36.2589 52.2295 36.1748 52.0448 36.0767 51.9028C35.9926 51.7607 35.8805 51.6329 35.7543 51.5335C35.6422 51.434 35.488 51.3488 35.3198 51.3062C35.1516 51.2494 34.9554 51.221 34.7171 51.221V53.3517C34.7171 53.4511 34.7452 53.5505 34.7872 53.6499C34.8293 53.7352 34.9134 53.792 35.0255 53.8488C35.0816 53.8772 35.1937 53.9056 35.3339 53.934C35.474 53.9624 35.6002 53.9767 35.6983 53.9767V54.3602H32.0261V53.9767C32.1102 53.9767 32.2223 53.9624 32.3765 53.9482C32.5306 53.934 32.6428 53.9056 32.7129 53.8914C32.839 53.8488 32.9091 53.7778 32.9651 53.6926C33.0072 53.6073 33.0212 53.5079 33.0212 53.3943V48.5363C33.0212 48.4227 33.0072 48.3232 32.9651 48.2522C32.9231 48.167 32.839 48.1102 32.7129 48.0534C32.6288 48.0107 32.5026 47.9681 32.3625 47.9397C32.2083 47.8971 32.0962 47.8829 32.0261 47.8687V47.4994H35.6983V47.8687C35.6002 47.8687 35.474 47.8971 35.3339 47.9255C35.2077 47.9397 35.0956 47.9681 35.0255 47.9965C34.8994 48.0392 34.8153 48.096 34.7732 48.1954C34.7452 48.2806 34.7171 48.3801 34.7171 48.4795V50.7664H35.0255C35.1516 50.7664 35.2918 50.7522 35.432 50.7096C35.5721 50.6812 35.6843 50.6102 35.7964 50.4823C36.0347 50.2551 36.2028 50.0278 36.315 49.8005C36.4271 49.559 36.5252 49.3176 36.6093 49.0761C36.7074 48.8062 36.7915 48.5789 36.8756 48.3943C36.9457 48.1954 37.0999 47.9965 37.3241 47.7693C37.4363 47.6556 37.5764 47.5704 37.7306 47.4994C37.8988 47.4426 38.081 47.3999 38.2632 47.3999C38.5856 47.3999 38.8379 47.4852 39.0201 47.6556C39.2023 47.8119 39.3004 48.0249 39.3004 48.2806C39.3004 48.5647 39.2163 48.7778 39.0621 48.934C38.9079 49.0903 38.7117 49.1613 38.4734 49.1613C38.3193 49.1613 38.1651 49.1187 38.0249 49.0335C37.8848 48.9482 37.7026 48.7636 37.5063 48.5079C37.4082 48.6073 37.3241 48.7636 37.254 48.9767C37.184 49.1755 37.1139 49.3602 37.0578 49.5164C36.9317 49.8431 36.8195 50.0846 36.6934 50.2409C36.5813 50.4113 36.4411 50.5534 36.2869 50.6528V50.7522C36.7355 50.8659 37.0999 51.0647 37.3942 51.3346C37.6885 51.6045 37.9268 51.9454 38.109 52.3431C38.1931 52.5136 38.2632 52.684 38.3473 52.8829C38.4314 53.0676 38.5155 53.238 38.5716 53.3659C38.6697 53.5789 38.7678 53.721 38.8659 53.792C38.964 53.863 39.0341 53.8914 39.0901 53.9056C39.1742 53.9056 39.2583 53.934 39.3705 53.9482C39.3985 53.9482 39.4265 53.9624 39.4546 53.9624C39.4966 53.9482 39.5527 53.9482 39.6087 53.934C39.7349 53.9056 39.847 53.863 39.9171 53.8204C40.0432 53.7352 40.1554 53.6499 40.2535 53.5363C40.3376 53.4227 40.4217 53.2806 40.4777 53.1244C40.8421 52.2295 41.2206 51.3204 41.585 50.4113C41.9634 49.5022 42.3699 48.4937 42.8184 47.3999H43.7715C44.3882 48.9482 44.8788 50.184 45.2292 51.0789C45.5936 51.988 45.8879 52.7409 46.1402 53.3232C46.1822 53.4227 46.2243 53.5079 46.2944 53.5931C46.3645 53.6784 46.4486 53.7494 46.5607 53.8204C46.6588 53.863 46.7569 53.9056 46.8831 53.934C46.9952 53.9624 47.1073 53.9767 47.1914 53.9767V54.3602H43.5052V53.9767C43.6734 53.9767 43.8836 53.934 44.1079 53.8914C44.3461 53.8346 44.4583 53.7778 44.4583 53.7068V53.6215C44.4583 53.6215 44.4302 53.5363 44.4162 53.4795L43.8416 52.059H41.5009C41.4448 52.1869 41.3888 52.3431 41.3187 52.5278C41.2486 52.6982 41.1925 52.8687 41.1505 52.9965C41.0944 53.1812 41.0524 53.309 41.0384 53.3943C41.0244 53.4795 41.0244 53.5363 41.0244 53.5647C41.0244 53.6642 41.1085 53.7494 41.2626 53.8204C41.4168 53.8914 41.6691 53.9482 42.0335 53.9767V54.3602ZM41.6831 51.5761H43.6454L42.6502 49.0903L41.6831 51.5761ZM48.2006 61.4624C48.0464 61.7465 47.8221 61.9738 47.5558 62.1443C47.2615 62.3289 46.9391 62.4568 46.5747 62.542C46.1963 62.6272 45.7898 62.6556 45.3273 62.6556H44.7806V64.5874C44.7806 64.7011 44.7947 64.8005 44.8367 64.8999C44.8788 64.9852 44.9629 65.042 45.089 65.0988C45.1451 65.1272 45.2572 65.1556 45.3974 65.184C45.5375 65.2124 45.6637 65.2267 45.7618 65.2409V65.6102H42.0896V65.2409C42.1877 65.2267 42.2998 65.2124 42.454 65.1982C42.6082 65.1982 42.7203 65.1556 42.7764 65.1272C42.9025 65.0846 42.9866 65.0136 43.0286 64.9426C43.0567 64.8715 43.0847 64.7721 43.0847 64.6301V59.7863C43.0847 59.6727 43.0567 59.5874 43.0286 59.5022C42.9866 59.417 42.9025 59.346 42.7764 59.2892C42.6923 59.2607 42.5661 59.2181 42.426 59.1897C42.2718 59.1613 42.1597 59.1329 42.0896 59.1329V58.7494H45.8319C46.7008 58.7494 47.3596 58.8914 47.7941 59.1755C48.2286 59.4596 48.4388 59.8857 48.4388 60.4681C48.4388 60.8517 48.3547 61.1926 48.2006 61.4624ZM46.5747 60.7096C46.5747 60.1982 46.4766 59.8147 46.2663 59.559C46.0701 59.3176 45.6917 59.1897 45.1731 59.1897H44.7806V62.2011H44.9769C45.4955 62.2011 45.9019 62.0874 46.1682 61.846C46.4345 61.5903 46.5747 61.221 46.5747 60.7096ZM50.9337 54.3602H47.2615V53.9767C47.3456 53.9767 47.4717 53.9624 47.6259 53.9482C47.7801 53.9198 47.8922 53.9056 47.9483 53.8772C48.0744 53.8204 48.1445 53.7636 48.1865 53.6926C48.2286 53.6073 48.2566 53.5079 48.2566 53.3801V48.5363C48.2566 48.4227 48.2286 48.3232 48.2006 48.238C48.1585 48.167 48.0744 48.096 47.9483 48.0392C47.8502 47.9965 47.738 47.9681 47.5839 47.9397C47.4437 47.8971 47.3316 47.8829 47.2615 47.8687V47.4994H50.9897C51.8728 47.4994 52.5315 47.6414 52.952 47.9255C53.3865 48.1954 53.6107 48.6357 53.6107 49.2181C53.6107 49.6017 53.5266 49.9284 53.3725 50.2124C53.2183 50.4965 52.994 50.7238 52.7137 50.8943C52.4334 51.0789 52.111 51.2068 51.7326 51.2778C51.3682 51.363 50.9617 51.4056 50.4992 51.4056H49.9526V53.3374C49.9526 53.4511 49.9666 53.5505 50.0086 53.6357C50.0507 53.721 50.1348 53.792 50.2609 53.8488C50.317 53.863 50.4291 53.8914 50.5693 53.9198C50.7094 53.9482 50.8356 53.9767 50.9337 53.9767V54.3602ZM49.9526 50.9511H50.1488C50.6674 50.9511 51.0598 50.8232 51.3401 50.5818C51.6064 50.3403 51.7466 49.971 51.7466 49.4596C51.7466 48.9482 51.6485 48.5647 51.4383 48.309C51.228 48.0676 50.8636 47.9397 50.345 47.9397H49.9526V50.9511ZM56.0495 63.5647C55.8813 64.0193 55.6431 64.4028 55.3207 64.7295C54.9983 65.0704 54.6199 65.3403 54.1714 65.5249C53.7229 65.7096 53.2043 65.809 52.5876 65.809C52.097 65.809 51.6345 65.7238 51.186 65.5534C50.7515 65.3971 50.373 65.1556 50.0367 64.8431C49.7003 64.5306 49.434 64.1613 49.2518 63.721C49.0555 63.2806 48.9574 62.7977 48.9574 62.2579C48.9574 61.7181 49.0415 61.1926 49.2377 60.738C49.434 60.2693 49.6863 59.8857 50.0226 59.559C50.345 59.2465 50.7375 58.9909 51.186 58.8204C51.6345 58.6499 52.111 58.5647 52.6296 58.5647C53.1482 58.5647 53.6107 58.6499 54.0452 58.8204C54.4938 58.9767 54.8722 59.2181 55.2086 59.5164C55.5309 59.8289 55.7972 60.1982 55.9935 60.6386C56.1897 61.0789 56.2878 61.5761 56.2878 62.1443C56.2878 62.6414 56.2037 63.1102 56.0495 63.5647ZM54.3816 62.1727C54.3816 61.7749 54.3536 61.3914 54.2975 61.0079C54.2415 60.6386 54.1433 60.2977 54.0172 60.0136C53.877 59.7153 53.6948 59.4738 53.4706 59.3034C53.2463 59.1187 52.966 59.0335 52.6296 59.0335C52.0409 59.0335 51.6064 59.3176 51.3121 59.8715C51.0178 60.4255 50.8636 61.2068 50.8636 62.2153C50.8636 62.6414 50.8916 63.0392 50.9617 63.4227C51.0318 63.8062 51.1299 64.1329 51.2701 64.417C51.4102 64.7011 51.5924 64.9284 51.8167 65.0846C52.0269 65.2551 52.3072 65.3261 52.6296 65.3261C52.952 65.3261 53.2043 65.2551 53.4425 65.0846C53.6668 64.9284 53.835 64.7011 53.9752 64.4312C54.1153 64.1329 54.2274 63.8062 54.2835 63.4369C54.3536 63.0534 54.3816 62.6414 54.3816 62.1727ZM56.3579 54.3034C55.9234 54.1329 55.5309 53.9056 55.1945 53.5789C54.8722 53.2806 54.6059 52.9113 54.4097 52.471C54.2274 52.0306 54.1293 51.5477 54.1293 51.0079C54.1293 50.4397 54.2134 49.9284 54.4097 49.4738C54.5919 49.0193 54.8582 48.6357 55.1805 48.309C55.5169 47.9823 55.9094 47.7409 56.3579 47.5704C56.8064 47.3999 57.2829 47.3005 57.7875 47.3005C58.2921 47.3005 58.7686 47.3857 59.2171 47.5562C59.6657 47.7267 60.0441 47.9539 60.3665 48.2664C60.7028 48.5647 60.9691 48.9482 61.1654 49.3744C61.3616 49.8147 61.4597 50.3261 61.4597 50.8801C61.4597 51.3772 61.3756 51.8602 61.2074 52.3147C61.0392 52.7551 60.801 53.1528 60.4926 53.4795C60.1702 53.8062 59.7778 54.0761 59.3433 54.2607C58.8948 54.4596 58.3762 54.5448 57.7595 54.5448C57.2689 54.5448 56.8064 54.4596 56.3579 54.3034ZM56.1336 52.1727C56.1897 52.542 56.3018 52.8829 56.442 53.167C56.5821 53.4511 56.7643 53.6784 56.9886 53.8346C57.1988 53.9909 57.4792 54.0761 57.7875 54.0761C58.0959 54.0761 58.3762 53.9909 58.6004 53.8346C58.8247 53.6784 59.0069 53.4511 59.1471 53.167C59.2872 52.8829 59.3853 52.542 59.4554 52.1727C59.5255 51.8034 59.5535 51.3772 59.5535 50.9085C59.5535 50.5249 59.5255 50.1272 59.4694 49.7579C59.4134 49.3744 59.3153 49.0477 59.1751 48.7494C59.049 48.4653 58.8667 48.2238 58.6425 48.0534C58.4182 47.8687 58.1239 47.7835 57.7875 47.7835C57.2129 47.7835 56.7784 48.0534 56.484 48.6073C56.1757 49.1613 56.0355 49.9426 56.0355 50.9511C56.0355 51.3772 56.0635 51.7892 56.1336 52.1727ZM56.9606 58.7494H63.0015V60.7096H62.6371C62.4969 60.3403 62.3147 60.0136 62.1044 59.7153C61.8942 59.4312 61.712 59.2749 61.5438 59.2465C61.4457 59.2465 61.3195 59.2181 61.1934 59.2039C61.0532 59.1897 60.9131 59.1897 60.7729 59.1897H59.6516V61.6329C59.7918 61.6329 59.96 61.6187 60.1282 61.6187C60.3104 61.6045 60.4786 61.6045 60.6468 61.6045C61.0673 61.6045 61.4597 61.6329 61.8101 61.7039C62.1465 61.7749 62.4548 61.8886 62.7352 62.0448C63.0015 62.2011 63.2117 62.3999 63.3659 62.6556C63.5201 62.8971 63.6042 63.1954 63.6042 63.5647C63.6042 63.9056 63.5341 64.2039 63.3799 64.4738C63.2397 64.7295 63.0295 64.9568 62.7772 65.1272C62.5249 65.2977 62.2586 65.4113 61.9643 65.4965C61.6559 65.5818 61.3476 65.6102 61.0252 65.6102H56.9606V65.2409C57.0447 65.2267 57.1708 65.2124 57.325 65.1982C57.4792 65.1982 57.5913 65.1556 57.6474 65.1272C57.7595 65.0846 57.8436 65.0278 57.8856 64.9426C57.9277 64.8573 57.9557 64.7579 57.9557 64.6301V59.7863C57.9557 59.6869 57.9277 59.5874 57.8856 59.5022C57.8576 59.417 57.7735 59.3602 57.6474 59.3034C57.5492 59.2607 57.4371 59.2181 57.297 59.1897C57.1428 59.1613 57.0306 59.1329 56.9606 59.1329V58.7494ZM59.6516 64.7437C59.6797 64.8715 59.7638 64.971 59.9039 65.0562C60.0581 65.1272 60.2403 65.1698 60.4506 65.1698C60.829 65.1698 61.1373 65.042 61.3616 64.7579C61.5999 64.488 61.712 64.1187 61.712 63.6215C61.712 63.1244 61.5859 62.7551 61.3055 62.4852C61.0252 62.2295 60.6188 62.0874 60.1002 62.0874C60.0441 62.0874 59.96 62.1017 59.8619 62.1017C59.7638 62.1017 59.6937 62.1159 59.6516 62.1159V64.7437ZM63.0575 53.6926C63.0155 53.7778 62.9314 53.8488 62.8193 53.8914C62.7492 53.9056 62.6371 53.934 62.4829 53.9482C62.3287 53.9624 62.2026 53.9767 62.1325 53.9767V54.3602H65.7907V53.9767C65.6925 53.9767 65.5804 53.9624 65.4262 53.934C65.2861 53.9056 65.174 53.8772 65.1179 53.8488C65.0058 53.792 64.9357 53.7352 64.8796 53.6499C64.8376 53.5505 64.8095 53.4511 64.8095 53.3517V51.0363H67.7109V53.4085C67.7109 53.5221 67.6828 53.6215 67.6408 53.7068C67.5987 53.7778 67.5146 53.8488 67.4025 53.8914C67.3464 53.9198 67.2343 53.934 67.0801 53.9482C66.926 53.9624 66.8138 53.9767 66.7297 53.9767V54.3602H70.3879V53.9767C70.3038 53.9767 70.1777 53.9624 70.0375 53.934C69.8974 53.9056 69.7852 53.8772 69.7151 53.8488C69.589 53.792 69.5049 53.721 69.4629 53.6499C69.4208 53.5647 69.4068 53.4653 69.4068 53.3517V48.4795C69.4068 48.3801 69.4208 48.2806 69.4629 48.1954C69.5049 48.096 69.589 48.0392 69.7151 47.9965C69.8133 47.9681 69.9254 47.9397 70.0515 47.9113C70.1777 47.8971 70.2898 47.8829 70.3879 47.8687V47.4994H66.7297V47.8687C66.8138 47.8687 66.926 47.8971 67.0661 47.9397C67.2063 47.9681 67.3184 48.0107 67.4025 48.0534C67.5286 48.1102 67.5987 48.167 67.6408 48.2522C67.6828 48.3232 67.7109 48.4227 67.7109 48.5363V50.5392H64.8095V48.4795C64.8095 48.3801 64.8376 48.2806 64.8796 48.1954C64.9217 48.096 64.9917 48.0392 65.1179 47.9965C65.188 47.9681 65.3001 47.9397 65.4403 47.9255C65.5664 47.8971 65.6925 47.8829 65.7907 47.8687V47.4994H62.1325V47.8687C62.1325 47.8687 62.3007 47.8971 62.4548 47.9397C62.595 47.9681 62.7211 48.0107 62.8193 48.0534C62.9454 48.1102 63.0155 48.167 63.0575 48.2522C63.0996 48.3232 63.1276 48.4227 63.1276 48.5363V53.3943C63.1276 53.5079 63.0996 53.6073 63.0575 53.6926ZM67.879 65.2409C67.795 65.2267 67.6688 65.2124 67.5286 65.184C67.3885 65.1556 67.2764 65.1272 67.2203 65.0988C67.0941 65.042 67.0241 64.9852 66.982 64.9142C66.926 64.8431 66.9119 64.7011 66.9119 64.4738L69.9534 60.6386V64.6585C69.9534 64.7721 69.9394 64.8715 69.8833 64.9568C69.8413 65.042 69.7572 65.0988 69.6451 65.1414C69.589 65.1698 69.4769 65.1982 69.3367 65.2124C69.1825 65.2267 69.0564 65.2267 68.9863 65.2409V65.6102H72.6165V65.2409C72.5183 65.2267 72.4062 65.2124 72.2661 65.184C72.1119 65.1698 71.9998 65.1414 71.9297 65.0988C71.8035 65.042 71.7194 64.9852 71.6774 64.8999C71.6353 64.8147 71.6213 64.7153 71.6213 64.6016V59.7437C71.6213 59.6301 71.6213 59.5448 71.6774 59.4454C71.7194 59.3602 71.8035 59.2892 71.9297 59.2465C72.0278 59.2181 72.1399 59.1897 72.2661 59.1755C72.3922 59.1471 72.5183 59.1329 72.6165 59.1329V58.7494H69.0003V59.1329C69.0844 59.1471 69.1965 59.1613 69.3227 59.1897C69.4488 59.2181 69.561 59.2607 69.6591 59.3034C69.7712 59.3602 69.8553 59.417 69.8974 59.488C69.9394 59.559 69.9674 59.6727 69.9674 59.8431L66.926 63.6642V59.7437C66.926 59.6443 66.94 59.5448 66.982 59.4454C67.0241 59.3602 67.1082 59.2892 67.2343 59.2465C67.3044 59.2465 67.4025 59.2039 67.5427 59.1755C67.6828 59.1471 67.7949 59.1329 67.8931 59.1329V58.7494H64.2629V59.1329C64.2629 59.1329 64.4451 59.1613 64.5853 59.1897C64.7395 59.2181 64.8656 59.2607 64.9497 59.3034C65.0758 59.3602 65.1599 59.4312 65.202 59.5022C65.244 59.5874 65.258 59.6727 65.258 59.7863V64.6443C65.258 64.7579 65.244 64.8715 65.188 64.9568C65.1459 65.042 65.0618 65.0988 64.9497 65.1414C64.8796 65.1698 64.7675 65.184 64.6133 65.2124C64.4591 65.2267 64.347 65.2409 64.2629 65.2409V65.6102H67.879V65.2409ZM78.3911 48.1954C78.4331 48.096 78.5172 48.0392 78.6293 47.9965C78.7415 47.9681 78.8536 47.9397 78.9797 47.9113C79.1059 47.8971 79.218 47.8829 79.3161 47.8687V47.4994H75.6579V47.8687C75.742 47.8687 75.8542 47.8971 75.9943 47.9397C76.1345 47.9681 76.2466 48.0107 76.3307 48.0534C76.4428 48.1102 76.5269 48.167 76.569 48.2522C76.611 48.3232 76.6391 48.4227 76.6391 48.5363V50.5392H73.7377V48.4795C73.7377 48.3801 73.7658 48.2806 73.8078 48.1954C73.8359 48.096 73.92 48.0392 74.0461 47.9965C74.1162 47.9681 74.2283 47.9397 74.3685 47.9255C74.4946 47.8971 74.6208 47.8829 74.7189 47.8687V47.4994H71.0607V47.8687C71.0607 47.8687 71.2289 47.8971 71.383 47.9397C71.5232 47.9681 71.6494 48.0107 71.7475 48.0534C71.8596 48.1102 71.9437 48.167 71.9857 48.2522C72.0278 48.3232 72.0418 48.4227 72.0418 48.5363V53.3943C72.0418 53.5079 72.0278 53.6073 71.9857 53.6926C71.9297 53.7778 71.8596 53.8488 71.7475 53.8914C71.6774 53.9056 71.5653 53.934 71.4111 53.9482C71.2569 53.9624 71.1308 53.9767 71.0607 53.9767V54.3602H74.7189V53.9767C74.6208 53.9767 74.5086 53.9624 74.3544 53.934C74.2143 53.9056 74.1022 53.8772 74.0461 53.8488C73.934 53.792 73.8499 53.7352 73.8078 53.6499C73.7658 53.5505 73.7377 53.4511 73.7377 53.3517V51.0363H76.6391V53.4085C76.6391 53.5221 76.611 53.6215 76.569 53.7068C76.5269 53.7778 76.4428 53.8488 76.3307 53.8914C76.2606 53.9198 76.1625 53.934 76.0083 53.9482C75.8542 53.9624 75.742 53.9767 75.6579 53.9767V54.3602H79.3161V53.9767C79.232 53.9767 79.1059 53.9624 78.9657 53.934C78.8256 53.9056 78.7134 53.8772 78.6293 53.8488C78.5172 53.792 78.4331 53.721 78.3911 53.6499C78.349 53.5647 78.335 53.4653 78.335 53.3517V48.4795C78.335 48.3801 78.349 48.2806 78.3911 48.1954ZM82.736 48.1812C82.7781 48.096 82.8622 48.0249 82.9883 47.9965C83.0864 47.9539 83.2126 47.9255 83.3527 47.9113C83.4929 47.8971 83.619 47.8829 83.7031 47.8687V47.4994H79.9468V47.8687C80.059 47.8687 80.1851 47.9113 80.3393 47.9397C80.4935 47.9823 80.6056 48.0107 80.6757 48.0392C80.8018 48.096 80.8859 48.167 80.928 48.2522C80.97 48.3232 80.984 48.4227 80.984 48.5363V53.4085C80.984 53.5221 80.956 53.6215 80.9139 53.7068C80.8719 53.7778 80.8018 53.8488 80.6757 53.8914C80.6196 53.9198 80.4935 53.934 80.3253 53.9482C80.1711 53.9624 80.045 53.9767 79.9468 53.9767V54.3602H83.7031V53.9767C83.605 53.9767 83.4789 53.9624 83.3247 53.934C83.1705 53.9056 83.0584 53.8772 82.9883 53.8488C82.8622 53.792 82.7921 53.7352 82.736 53.6499C82.694 53.5647 82.68 53.4653 82.68 53.3517V48.4795C82.68 48.3801 82.694 48.2664 82.736 48.1812ZM40.0292 70.7664C40.3656 71.0789 40.6319 71.4624 40.8281 71.8886C41.0244 72.3289 41.1225 72.8403 41.1225 73.3943C41.1225 73.8914 41.0384 74.3744 40.8702 74.8147C40.702 75.2693 40.4637 75.667 40.1554 75.9937C39.819 76.3204 39.4405 76.5903 38.992 76.7749C38.5575 76.9596 38.0249 77.059 37.4222 77.059C36.9317 77.059 36.4551 76.9738 36.0206 76.8176C35.5861 76.6471 35.1937 76.4056 34.8573 76.0931C34.5349 75.7948 34.2686 75.4255 34.0724 74.9852C33.8762 74.5448 33.7781 74.0477 33.7781 73.5221C33.7781 72.9539 33.8762 72.4426 34.0584 71.988C34.2546 71.5335 34.5209 71.1357 34.8433 70.809C35.1797 70.4965 35.5581 70.2551 36.0066 70.0846C36.4692 69.8999 36.9457 69.8147 37.4503 69.8147C37.9548 69.8147 38.4314 69.8999 38.8799 70.0704C39.3144 70.2409 39.7068 70.4681 40.0292 70.7664ZM39.2023 73.4227C39.2023 73.0249 39.1742 72.6414 39.1322 72.2721C39.0761 71.8886 38.978 71.5619 38.8379 71.2636C38.6977 70.9795 38.5155 70.738 38.2912 70.5534C38.067 70.3829 37.7867 70.2977 37.4503 70.2977C36.8756 70.2977 36.4411 70.5676 36.1328 71.1215C35.8384 71.6755 35.6842 72.4568 35.6842 73.4653C35.6842 73.8914 35.7263 74.3034 35.7824 74.6869C35.8524 75.0562 35.9506 75.3971 36.0907 75.6812C36.2449 75.9653 36.4271 76.1926 36.6373 76.3488C36.8616 76.5051 37.1279 76.5903 37.4503 76.5903C37.7726 76.5903 38.0389 76.5051 38.2632 76.3488C38.4875 76.1784 38.6697 75.9653 38.7958 75.6812C38.95 75.3829 39.0481 75.0562 39.1182 74.6869C39.1742 74.3176 39.2023 73.8914 39.2023 73.4227ZM44.4723 73.9198V75.8517C44.4723 75.9653 44.5003 76.0647 44.5424 76.1499C44.5844 76.2352 44.6685 76.3062 44.7806 76.3488C44.8507 76.3772 44.9488 76.4056 45.089 76.434C45.2432 76.4624 45.3553 76.4909 45.4534 76.4909V76.8744H41.7812V76.4909C41.8793 76.4909 42.0055 76.4766 42.1597 76.4482C42.2998 76.434 42.4119 76.4198 42.468 76.3914C42.5941 76.3346 42.6782 76.2778 42.7203 76.2068C42.7623 76.1215 42.7764 76.0221 42.7764 75.8943V71.0505C42.7764 70.9369 42.7623 70.8374 42.7203 70.7522C42.6782 70.667 42.5941 70.6102 42.468 70.5534C42.3839 70.5107 42.2718 70.4823 42.1176 70.4397C41.9634 70.4113 41.8653 70.3971 41.7812 70.3829V70.0136H45.5235C46.3925 70.0136 47.0512 70.1556 47.4857 70.4255C47.9202 70.7096 48.1305 71.1499 48.1305 71.7323C48.1305 72.1159 48.0604 72.4426 47.8922 72.7267C47.738 72.9965 47.5278 73.2238 47.2475 73.4085C46.9671 73.5789 46.6308 73.721 46.2663 73.792C45.9019 73.8772 45.4814 73.9198 45.0329 73.9198H44.4723ZM44.4723 73.4653H44.6685C45.2011 73.4653 45.5936 73.3374 45.8599 73.096C46.1402 72.8545 46.2663 72.4852 46.2663 71.9738C46.2663 71.4624 46.1682 71.0789 45.958 70.8232C45.7618 70.5676 45.3974 70.4539 44.8647 70.4539H44.4723V73.4653ZM48.9434 74.9852C48.7472 74.5448 48.6491 74.0477 48.6491 73.5221C48.6491 72.9539 48.7472 72.4426 48.9294 71.988C49.1256 71.5335 49.3779 71.1357 49.7143 70.809C50.0367 70.4965 50.4291 70.2551 50.8776 70.0846C51.3261 69.8999 51.8167 69.8147 52.3213 69.8147C52.8258 69.8147 53.3024 69.8999 53.7509 70.0704C54.1854 70.2409 54.5778 70.4681 54.9002 70.7664C55.2366 71.0789 55.5029 71.4624 55.6991 71.8886C55.8954 72.3289 55.9935 72.8403 55.9935 73.3943C55.9935 73.8914 55.9094 74.3744 55.7412 74.8147C55.573 75.2693 55.3347 75.667 55.0264 75.9937C54.69 76.3204 54.3115 76.5903 53.863 76.7749C53.4285 76.9596 52.8959 77.059 52.2932 77.059C51.7887 77.059 51.3261 76.9738 50.8916 76.8176C50.4571 76.6471 50.0647 76.4056 49.7283 76.0931C49.3919 75.7948 49.1396 75.4255 48.9434 74.9852ZM50.5552 73.4653C50.5552 73.8914 50.5973 74.3034 50.6534 74.6869C50.7234 75.0562 50.8216 75.3971 50.9617 75.6812C51.1019 75.9653 51.2841 76.1926 51.5083 76.3488C51.7326 76.5051 51.9989 76.5903 52.3213 76.5903C52.6436 76.5903 52.9099 76.5051 53.1342 76.3488C53.3585 76.1784 53.5407 75.9653 53.6668 75.6812C53.821 75.3829 53.9191 75.0562 53.9752 74.6869C54.0452 74.3176 54.0733 73.8914 54.0733 73.4227C54.0733 73.0249 54.0452 72.6414 53.9892 72.2721C53.9331 71.8886 53.849 71.5619 53.7089 71.2636C53.5687 70.9795 53.3865 70.738 53.1622 70.5534C52.938 70.3829 52.6577 70.2977 52.3213 70.2977C51.7466 70.2977 51.3121 70.5676 51.0038 71.1215C50.7094 71.6755 50.5552 72.4568 50.5552 73.4653ZM63.9966 70.7096C64.0387 70.6102 64.1087 70.5534 64.2349 70.5107C64.333 70.4681 64.4451 70.4539 64.5713 70.4255C64.7114 70.4113 64.8236 70.3971 64.9217 70.3829V70.0136H61.2635V70.3829C61.3476 70.3971 61.4597 70.4113 61.5999 70.4539C61.726 70.4823 61.8381 70.5249 61.9222 70.5534C62.0484 70.6244 62.1325 70.6812 62.1745 70.7664C62.2166 70.8374 62.2306 70.9369 62.2306 71.0505V73.0534H59.3433V70.9937C59.3433 70.8943 59.3573 70.7948 59.3994 70.7096C59.4414 70.6102 59.5255 70.5534 59.6516 70.5107C59.7217 70.4823 59.8198 70.4539 59.96 70.4397C60.1002 70.4113 60.2123 70.3971 60.3104 70.3829V70.0136H56.6522V70.3829C56.7223 70.3971 56.8344 70.4113 56.9746 70.4397C57.1288 70.4823 57.2549 70.5107 57.339 70.5534C57.4651 70.6244 57.5492 70.6812 57.5913 70.7664C57.6333 70.8374 57.6474 70.9369 57.6474 71.0505V75.9085C57.6474 76.0221 57.6193 76.1215 57.5773 76.2068C57.5352 76.292 57.4511 76.3488 57.339 76.4056C57.2689 76.4198 57.1568 76.4482 57.0026 76.4624C56.8484 76.4624 56.7363 76.4909 56.6522 76.4909V76.8744H60.3104V76.4909C60.2263 76.4909 60.1002 76.4766 59.96 76.4482C59.8058 76.4198 59.7077 76.3914 59.6516 76.363C59.5395 76.3062 59.4554 76.2494 59.4134 76.1499C59.3713 76.0647 59.3433 75.9653 59.3433 75.8659V73.5505H62.2306V75.9085C62.2306 76.0363 62.2166 76.1357 62.1745 76.221C62.1185 76.292 62.0484 76.363 61.9222 76.4056C61.8662 76.434 61.7681 76.4482 61.6139 76.4624C61.4597 76.4624 61.3336 76.4909 61.2635 76.4909V76.8744H64.9217V76.4909C64.8236 76.4909 64.7114 76.4766 64.5713 76.4482C64.4171 76.4198 64.305 76.3914 64.2349 76.363C64.1087 76.3062 64.0387 76.2352 63.9966 76.1499C63.9546 76.0789 63.9265 75.9795 63.9265 75.8659V70.9937C63.9265 70.8943 63.9546 70.7948 63.9966 70.7096ZM70.1917 76.221V76.1215C70.1917 76.1215 70.1777 76.0505 70.1496 75.9937L69.575 74.5732H67.2343C67.1782 74.7011 67.1222 74.8573 67.0521 75.042C66.996 75.2124 66.926 75.3687 66.8839 75.5107C66.8278 75.6954 66.7858 75.8232 66.7718 75.9085C66.7718 75.9795 66.7578 76.0363 66.7578 76.0789C66.7578 76.1784 66.8419 76.2636 66.996 76.3346C67.1502 76.4056 67.4025 76.4624 67.7669 76.4909V76.8744H64.9917V76.4909C65.0899 76.4909 65.202 76.4766 65.3421 76.4482C65.4683 76.4198 65.5804 76.3772 65.6505 76.3346C65.7766 76.2494 65.8888 76.1642 65.9869 76.0505C66.071 75.9369 66.1551 75.7948 66.2111 75.6386C66.5756 74.7437 66.954 73.8346 67.3184 72.9255C67.6968 72.0164 68.1033 71.0079 68.5518 69.9142H69.5049C70.1356 71.4624 70.6122 72.6982 70.9766 73.5931C71.327 74.5022 71.6213 75.2551 71.8736 75.8374C71.9157 75.9369 71.9717 76.0221 72.0278 76.1073C72.0979 76.1784 72.182 76.2636 72.3081 76.3346C72.3922 76.3772 72.4903 76.4198 72.6165 76.4482C72.7286 76.4766 72.8407 76.4909 72.9388 76.4909V76.8744H69.2386V76.4909C69.4208 76.4766 69.617 76.4482 69.8553 76.4056C70.0796 76.3488 70.1917 76.292 70.1917 76.221ZM69.3788 74.0903L68.3976 71.6045L67.4305 74.0903H69.3788Z" fill="#000F9F"/>
</svg>
