<svg width="24" height="25" viewBox="0 0 24 25" fill="none" xmlns="http://www.w3.org/2000/svg">
<path d="M6.6 7.05C6.35147 6.71863 5.88137 6.65147 5.55 6.9C5.21863 7.14853 5.15147 7.61863 5.4 7.95L8.2 11.6833C10.1 14.2167 13.9 14.2167 15.8 11.6833L18.6 7.95C18.8485 7.61863 18.7814 7.14853 18.45 6.9C18.1186 6.65147 17.6485 6.71863 17.4 7.05L14.6 10.7833C13.3 12.5167 10.7 12.5167 9.4 10.7833L6.6 7.05Z" fill="#000F9F"/>
<path fill-rule="evenodd" clip-rule="evenodd" d="M18 4.5H6C3.79086 4.5 2 6.29086 2 8.5V16.5C2 18.7091 3.79086 20.5 6 20.5H18C20.2091 20.5 22 18.7091 22 16.5V8.5C22 6.29086 20.2091 4.5 18 4.5ZM6 6H18C19.3807 6 20.5 7.11929 20.5 8.5V16.5C20.5 17.8807 19.3807 19 18 19H6C4.61929 19 3.5 17.8807 3.5 16.5V8.5C3.5 7.11929 4.61929 6 6 6Z" fill="#000F9F"/>
</svg>
