<svg width="33" height="33" viewBox="0 0 33 33" fill="none" xmlns="http://www.w3.org/2000/svg">
<path d="M16.5 33C7.40143 33 0 25.5986 0 16.5C0 7.40143 7.40143 0 16.5 0C25.5986 0 33 7.40143 33 16.5C33 25.5986 25.5986 33 16.5 33ZM16.5 1.57143C8.26572 1.57143 1.57143 8.26571 1.57143 16.5C1.57143 24.7343 8.26572 31.4286 16.5 31.4286C24.7343 31.4286 31.4286 24.7343 31.4286 16.5C31.4286 8.26571 24.7343 1.57143 16.5 1.57143ZM20.7586 25.1743C19.8629 25.1743 19.1714 24.6871 18.5114 24.2157C18.3386 24.09 18.1814 23.98 18.0086 23.8543C16.6257 22.9586 15.8557 22.3929 14.5043 21.4971C14.0486 21.1986 13.42 20.6957 13.3571 19.9571C13.2786 19.1714 13.86 18.6214 14.3629 18.1343C14.4729 18.0243 14.5986 17.9143 14.7086 17.7886C14.74 17.7571 14.8814 17.6314 15.07 17.4429C14.4729 17.8514 13.7814 18.3071 13.0114 18.8257C12.2571 19.3443 11.5186 19.5643 10.8429 19.5957C10.1671 19.58 9.02 19.25 8.17143 18.9829L7.84143 18.8729C6.93 18.59 5.79857 18.2286 5.94 17.0971C6.03429 16.3114 6.88286 15.8871 7.59 15.5886C12.1471 13.5929 15.2114 12.2886 16.7514 11.6443C21.3871 9.71143 22.1886 9.46 22.8957 9.44429C23.0371 9.42857 23.5871 9.46 24.0114 9.80571C24.2786 10.0257 24.4514 10.3243 24.5143 10.7171C24.5457 10.8586 24.5771 11.22 24.5457 11.5343C24.2943 14.1114 23.2571 20.2086 22.7543 22.8957C22.4243 24.6557 21.6071 25.08 20.9786 25.1429C20.9157 25.1743 20.8371 25.1743 20.7586 25.1743ZM14.9129 19.8471C14.9443 19.8471 15.0543 19.9886 15.3529 20.1929C15.95 20.5857 16.4371 20.9157 16.9243 21.2457L17.1129 21.3714C17.6471 21.7329 18.1814 22.0943 18.8571 22.5343C19.0457 22.66 19.2343 22.8014 19.4229 22.9271C20.0357 23.3671 20.4443 23.65 20.8529 23.6029C20.9 23.5714 21.0886 23.3357 21.23 22.6286C21.7171 20.0357 22.77 13.8914 23.0057 11.3929C23.0214 11.2671 23.0057 11.0629 22.99 10.9843C22.4714 11.0314 21.2771 11.4871 17.3643 13.1057C15.84 13.7343 12.7914 15.0543 8.21857 17.05C8.06143 17.1129 7.93572 17.16 7.84143 17.2071C7.99857 17.27 8.17143 17.3171 8.32857 17.3643L8.67429 17.4743C9.68 17.8043 10.5286 18.0086 10.89 18.0086C11.2514 18.0086 11.66 17.8514 12.1314 17.5214C18.6686 13.1057 18.81 13.0743 19.03 13.0271C19.2029 12.9957 19.6743 12.8857 20.0671 13.2471C20.3971 13.5457 20.4443 13.9857 20.3814 14.2843C20.3029 14.63 20.2557 14.7871 16.5157 18.26C16.1543 18.59 15.9029 18.8257 15.84 18.8886C15.7143 19.03 15.5729 19.1557 15.4471 19.2814C15.2586 19.4543 14.9757 19.7214 14.9129 19.8471Z" fill="currentColor"/>
</svg>
