<svg width="88" height="88" viewBox="0 0 88 88" fill="none" xmlns="http://www.w3.org/2000/svg">
<path d="M75.2772 64.6847C76.3512 65.7587 76.3512 67.4999 75.2772 68.5738C74.2033 69.6478 72.4621 69.6478 71.3881 68.5738L52.4257 49.6114C47.7719 44.9577 40.2267 44.9577 35.573 49.6114L16.6106 68.5738C15.5366 69.6478 13.7954 69.6478 12.7215 68.5738C11.6475 67.4999 11.6475 65.7587 12.7215 64.6848L31.6839 45.7223C38.4855 38.9207 49.5131 38.9207 56.3148 45.7223L75.2772 64.6847Z" fill="#4E60D5"/>
<path d="M75.2772 42.6847C76.3512 43.7587 76.3512 45.4999 75.2772 46.5738C74.2033 47.6478 72.4621 47.6478 71.3881 46.5738L52.4257 27.6114C47.7719 22.9577 40.2267 22.9577 35.573 27.6114L16.6106 46.5738C15.5366 47.6478 13.7954 47.6478 12.7215 46.5738C11.6475 45.4999 11.6475 43.7587 12.7215 42.6848L31.6839 23.7223C38.4855 16.9207 49.5131 16.9207 56.3148 23.7223L75.2772 42.6847Z" fill="#4E60D5"/>
</svg>
