<svg width="31" height="33" viewBox="0 0 31 33" fill="none" xmlns="http://www.w3.org/2000/svg">
<path d="M19.6188 16.0483C18.4999 15.4354 17.3485 15.8225 16.8296 16.5L16.2458 17.2419C16.2296 17.258 16.1485 17.2742 16.2134 17.2903C12.8728 16.4354 11.7539 13.3225 11.5593 12.7096C11.5593 12.6774 11.5755 12.629 11.5593 12.629L12.3053 12.0322C13.0026 11.5 13.3918 10.3548 12.7593 9.22577C12.5323 8.82254 12.0782 8.09674 11.7539 7.64512C11.3972 7.17738 10.5863 6.20964 10.5863 6.20964C9.97013 5.4677 8.99715 5.27415 8.08904 5.70964C8.04039 5.72577 8.00796 5.7419 7.95931 5.75802C6.43498 6.61286 4.862 8.25803 5.42957 10.0161C5.44579 10.0645 5.77011 11.2258 7.16471 13.7096C7.78093 14.8225 8.46202 15.8548 9.19175 16.758C9.98635 17.758 10.9918 18.758 12.0134 19.5806C13.9918 21.1451 17.0729 22.7742 18.6458 23.258C18.6945 23.2742 18.7269 23.2903 18.7756 23.3064C19.0513 23.3871 19.3107 23.4354 19.5702 23.4354C21.0459 23.4354 22.3107 22.1613 23.0891 20.8064C23.1215 20.758 23.1378 20.7258 23.154 20.6774C23.5756 19.7742 23.381 18.8064 22.6837 18.258C21.7594 17.3871 20.4621 16.5322 19.6188 16.0483ZM21.5486 19.9677C21.5323 19.9838 21.5323 20 21.5161 20.0322C20.9648 20.9677 20.0567 21.7903 19.408 21.6774C19.3594 21.6613 19.3107 21.6451 19.2621 21.629C18.1107 21.3064 15.0783 19.7903 13.0999 18.2258C12.1755 17.5 11.2674 16.5967 10.5539 15.6935C9.88905 14.8548 9.25661 13.9032 8.68904 12.8709C7.42417 10.6129 7.11606 9.56448 7.11606 9.51609C6.88903 8.82254 7.7485 7.90319 8.75391 7.32254C8.77012 7.32254 8.78634 7.30641 8.80256 7.29028C9.09445 7.14512 9.17553 7.25802 9.2404 7.32254C9.2404 7.32254 10.0026 8.22577 10.3269 8.67738C10.635 9.08061 11.0242 9.72577 11.235 10.0806C11.4134 10.3871 11.2674 10.6129 11.2188 10.6613L10.4566 11.258C9.72688 11.8548 9.79175 12.7903 9.82418 13.0483C9.87283 13.2419 11.1377 17.7903 15.9377 19C16.0512 19.0161 16.9918 19.0645 17.5918 18.3387L18.208 17.5645C18.2404 17.5322 18.4675 17.3871 18.7756 17.5645C19.5864 18.0161 20.754 18.8064 21.5486 19.5484C21.5972 19.6129 21.6945 19.6935 21.5486 19.9677Z" fill="currentColor"/>
<path d="M15.3702 0C4.71605 0 0.337653 4.01613 0.224139 13.8548C0.17549 18.371 1.32685 22.2419 3.28902 24.2097C4.22956 25.1452 5.41335 25.8548 6.79174 26.3387C6.79174 27.7742 6.7593 31.1452 6.7593 31.5161C6.74309 32.4516 7.22958 32.7903 7.52147 32.9194C7.66742 32.9839 7.81336 33 7.95931 33C8.31607 33 8.68904 32.8387 8.99715 32.5161C9.9377 31.5645 12.5485 28.4677 13.4242 27.4355C20.1053 27.8064 24.4513 26.7581 27.0783 24.1452C29.4459 21.7903 30.2891 17.1452 30.2891 13.5806C30.3216 3.79032 26.1378 0 15.3702 0ZM25.8783 22.8871C23.608 25.1452 19.4242 26.0484 13.1161 25.6452C12.8404 25.6129 12.5647 25.7419 12.3864 25.9516C12.3539 25.9839 9.97013 28.8387 8.52688 30.4516C8.52688 28.7581 8.54309 25.6613 8.54309 25.6613C8.54309 25.2742 8.28363 24.9194 7.91066 24.8226C6.53228 24.4355 5.39714 23.8065 4.52146 22.9516C2.89983 21.3387 1.92685 17.8548 1.95928 13.8548C2.05658 5.01613 5.67281 1.72581 15.3539 1.72581C26.3972 1.72581 28.5702 6.06452 28.5702 13.5484C28.5702 17.5968 27.5162 21.2581 25.8783 22.8871Z" fill="currentColor"/>
<path d="M21.0459 14.0645H21.0621C21.5323 14.0645 21.9215 13.6936 21.9378 13.2097C22.0188 9.46776 19.4567 6.77421 15.5648 6.50001C15.0783 6.46776 14.6566 6.82259 14.6242 7.30646C14.5918 7.79034 14.9485 8.20969 15.435 8.24195C18.435 8.45163 20.2513 10.3549 20.1864 13.1774C20.1702 13.6613 20.5594 14.0484 21.0459 14.0645Z" fill="currentColor"/>
<path d="M14.981 4.24195C14.4945 4.24195 14.1053 4.62905 14.1053 5.11292C14.1053 5.59679 14.4945 5.98389 14.981 5.98389C19.4891 6.01614 22.5378 9.19356 22.5864 13.8871C22.5864 14.371 22.9756 14.742 23.4621 14.742C23.9486 14.742 24.3378 14.3387 24.3378 13.871C24.2729 8.24195 20.4296 4.27421 14.981 4.24195Z" fill="currentColor"/>
<path d="M15.9864 8.85483C15.4674 8.82257 15.0945 9.19354 15.062 9.67741C15.0296 10.1613 15.4188 10.5645 15.9053 10.5968C17.235 10.6613 17.8512 11.3064 17.9161 12.6774C17.9323 13.1452 18.3215 13.5 18.7918 13.5C18.808 13.5 18.8242 13.5 18.8404 13.5C19.3269 13.4839 19.6999 13.0645 19.6675 12.5968C19.5539 10.3387 18.208 8.96773 15.9864 8.85483Z" fill="currentColor"/>
</svg>
