<svg width="31" height="33" viewBox="0 0 31 33" fill="none" xmlns="http://www.w3.org/2000/svg">
<path d="M7.68506 33C7.53776 33 7.40683 32.9676 7.2759 32.919C6.99767 32.8055 6.5394 32.4814 6.5394 31.5738C6.5394 31.2011 6.55577 27.7491 6.55577 26.323C-0.219987 24.0703 -0.0726884 17.0043 0.025511 13.1472L0.0418775 12.7421C0.12371 8.26911 1.13844 5.23852 3.21699 3.19652C7.29226 -0.466114 15.2628 0.00387003 15.5901 0.0362827C23.2988 0.0686954 26.392 2.6455 26.703 2.93722C29.5344 5.35197 30.6637 10.8621 29.7636 18.0415C28.8961 24.9941 24.0353 26.1123 22.4477 26.485C22.3004 26.5175 22.1858 26.5499 22.104 26.5661C22.0713 26.5823 18.2742 27.6519 13.1679 27.3926C12.3168 28.4136 9.64905 31.5738 8.68342 32.53C8.38882 32.8379 8.02876 33 7.68506 33ZM14.4772 1.62451C12.2513 1.62451 7.0795 1.90001 4.32992 4.37958C2.61143 6.08125 1.76037 8.7553 1.67853 12.7745L1.66217 13.1796C1.58033 16.9395 1.43304 23.2438 7.60323 24.9292C7.96329 25.0265 8.20879 25.3506 8.20879 25.7071C8.20879 25.7071 8.19243 29.0294 8.19243 30.6825C9.64905 29.0781 12.1695 26.0637 12.2022 26.0313C12.3659 25.8368 12.6278 25.7233 12.8896 25.7396C17.816 26.0637 21.5966 25.0265 21.6294 25.0103C21.7439 24.9779 21.8912 24.9454 22.104 24.8968C23.5606 24.5565 27.4395 23.6651 28.176 17.8309C28.9943 11.2835 28.0451 6.16228 25.6555 4.13649C24.6899 3.27755 21.3675 1.67312 15.5574 1.64071C15.5083 1.65692 15.1155 1.62451 14.4772 1.62451Z" fill="currentColor"/>
<path d="M7.33749 25.5347C7.31961 25.5347 7.31961 25.5347 7.33749 25.5347V25.5347Z" fill="currentColor"/>
<path d="M19.7324 22.1242C19.4887 22.1242 19.2287 22.092 18.9688 21.9955C18.92 21.9794 18.8876 21.9633 18.8388 21.9472C17.3279 21.4807 14.3548 19.9202 12.4539 18.424C11.4629 17.6518 10.4881 16.6866 9.72451 15.7213C9.02591 14.8526 8.3598 13.8713 7.75868 12.7934C6.44271 10.4125 6.11777 9.30242 6.10153 9.25415C5.56539 7.58105 7.07632 6.02057 8.53851 5.2001C8.571 5.18402 8.61974 5.16793 8.65224 5.15184C9.5133 4.74965 10.4394 4.92662 11.0242 5.63447C11.0242 5.63447 11.8041 6.55145 12.1452 7.01799C12.4702 7.45235 12.8926 8.14412 13.12 8.53022C13.7212 9.59199 13.3312 10.6859 12.6814 11.1847L11.9665 11.7477C11.9665 11.7638 11.934 11.8603 11.9503 11.9086C11.9665 11.9086 12.9576 15.3835 16.4831 16.2844C16.4181 16.2683 16.4993 16.2522 16.5156 16.2361L17.0842 15.5283C17.5716 14.8848 18.6763 14.5148 19.7486 15.11C20.5609 15.5605 21.8282 16.3809 22.7055 17.2175C23.3716 17.7484 23.5503 18.6653 23.1441 19.518C23.1279 19.5662 23.1117 19.5984 23.0792 19.6467C22.3643 20.9176 21.1458 22.1242 19.7324 22.1242ZM19.5699 20.4993C20.2685 20.6119 21.1133 19.7915 21.6495 18.8906C21.6495 18.8745 21.6657 18.8584 21.682 18.8262C21.8282 18.5366 21.7307 18.4562 21.6495 18.3919C20.8696 17.6679 19.7486 16.9118 18.9525 16.4774C18.6276 16.3005 18.4002 16.4453 18.3677 16.4935L17.7665 17.2336C17.2142 17.9253 16.3044 17.861 16.2069 17.861C11.6091 16.7188 10.3906 12.359 10.3419 12.166C10.3094 11.9247 10.2444 11.0399 10.943 10.4929L11.6903 9.89765C11.7553 9.84939 11.8853 9.60808 11.7228 9.30242C11.5279 8.96458 11.138 8.33717 10.8455 7.95107C10.5368 7.5167 9.78949 6.66407 9.78949 6.64798C9.72451 6.56754 9.62703 6.45493 9.31834 6.6158C9.3021 6.63189 9.28585 6.63189 9.25336 6.64798C8.31106 7.19495 7.43374 8.07977 7.6612 8.78762C7.67744 8.81979 7.96988 9.8333 9.18837 12.0212C9.74075 13.0186 10.3419 13.9356 10.9917 14.7239C11.6903 15.5926 12.5677 16.4614 13.4612 17.1692C15.3783 18.6814 18.3189 20.1454 19.4237 20.4511C19.4724 20.4671 19.5212 20.4832 19.5699 20.4993Z" fill="currentColor"/>
</svg>
